<svg width="122" height="122" viewBox="0 0 122 122" fill="none" xmlns="http://www.w3.org/2000/svg">
<path d="M112.2 9.71242C112.2 9.6929 112.206 9.6746 112.206 9.65508C112.206 8.77141 111.855 7.92388 111.231 7.29869C110.606 6.6735 109.759 6.32179 108.875 6.32082H48.262V6.33424L9.79785 44.7996H9.79419V112.345H9.79785C9.79914 113.229 10.1511 114.077 10.7764 114.702C11.4018 115.327 12.2494 115.678 13.1333 115.678H108.878C109.637 115.677 110.373 115.416 110.964 114.939C111.555 114.462 111.965 113.797 112.127 113.055H112.2V112.401L112.205 112.347C112.207 112.321 112.2 112.312 112.2 112.294V9.71242ZM82.5196 18.4684H100.052V48.4767L77.9544 26.3776L82.5196 18.4684ZM48.2754 48.1327C49.1571 48.1301 50.0017 47.778 50.6242 47.1537C51.2467 46.5294 51.5963 45.6837 51.5963 44.8021V18.4684H75.4936L42.3462 75.8816L21.9417 55.4771V48.1327H48.2754ZM21.9417 103.532V64.0829L39.1962 81.3374L26.3837 103.532H21.9417ZM33.4097 103.532L74.8043 31.8335L100.053 57.0826V103.532H33.4097Z" fill="white"/>
<path d="M75.6766 55.6027C67.5697 55.6027 61.0049 62.1749 61.0049 70.2757C61.0049 73.5196 62.0699 76.5086 63.8524 78.9377L73.3183 95.3332C73.3745 95.4487 73.4383 95.5589 73.5099 95.6639L73.5294 95.6968L73.5343 95.6944C73.7683 96.0199 74.0734 96.2877 74.4265 96.4775C74.7797 96.6673 75.1714 96.774 75.572 96.7895C75.9726 96.8051 76.3714 96.729 76.7382 96.5671C77.1049 96.4053 77.4299 96.1618 77.6884 95.8554L77.7128 95.8688L77.8043 95.7114C77.9459 95.5247 78.0635 95.321 78.1544 95.1051L87.4362 79.0279C89.3293 76.5023 90.3524 73.4308 90.352 70.2744C90.3483 62.1749 83.7835 55.6027 75.6766 55.6027ZM75.5314 77.714C74.582 77.7143 73.6418 77.5276 72.7646 77.1644C71.8874 76.8013 71.0903 76.2689 70.419 75.5976C69.7476 74.9263 69.215 74.1294 68.8517 73.2522C68.4884 72.375 68.3015 71.4349 68.3017 70.4855C68.3015 69.0555 68.7253 67.6576 69.5195 66.4686C70.3138 65.2795 71.4428 64.3526 72.7639 63.8052C74.0849 63.2579 75.5386 63.1145 76.9411 63.3933C78.3436 63.6722 79.632 64.3606 80.6432 65.3717C81.6544 66.3827 82.3431 67.6709 82.6221 69.0734C82.9012 70.4758 82.7581 71.9296 82.2109 73.2507C81.6638 74.5718 80.7371 75.701 79.5482 76.4955C78.3592 77.29 76.9614 77.714 75.5314 77.714Z" fill="white"/>
</svg>
