<?xml version="1.0" encoding="UTF-8"?>
<svg id="Calque_2" data-name="Calque 2" xmlns="http://www.w3.org/2000/svg" xmlns:xlink="http://www.w3.org/1999/xlink" viewBox="0 0 586.6 226.2">
  <defs>
    <linearGradient id="Dégradé_sans_nom_88" data-name="Dégradé sans nom 88" x1="70.4" y1="127" x2="81.3" y2="128.1" gradientUnits="userSpaceOnUse">
      <stop offset="0" stop-color="#6eb825"/>
      <stop offset="1" stop-color="#687c38"/>
    </linearGradient>
    <linearGradient id="Dégradé_sans_nom_89" data-name="Dégradé sans nom 89" x1="91.8" y1="114.3" x2="112.5" y2="114.9" gradientUnits="userSpaceOnUse">
      <stop offset="0" stop-color="#d90d2b"/>
      <stop offset="1" stop-color="#b11026"/>
    </linearGradient>
  </defs>
  <g id="Calque_1-2" data-name="Calque 1">
    <g>
      <circle cx="111.4" cy="113.2" r="86.7" fill="#3f6170"/>
      <path d="M104.3,35.3c.6,1.4.6,3.4,1.7,4.8-.1.5-5.1,1.2-6.2,1.4-1.9.3-4.9.5-6.7,1.1l-1.9-6.9c1.6-.8,11.5-2.9,12.3-2.1s.7,1.5.8,1.8Z" fill="#fdfdfd"/>
      <g>
        <path d="M43.7,72l6.1,3c-2,3.3-4.1,6.7-5.8,10.2s-2.1,6.1-2.3,6.4c-.7.7-6.9-1-7-1.6,2.7-6.1,4.8-12.6,9-17.9Z" fill="#a85766"/>
        <path d="M40.8,134.3c.3,0,.7,0,.9.1l7.9,16.4c0,.7-5.8,3.7-6.6,2.9s-3.9-7.1-4.3-8.2c-1.4-2.9-2.3-6.1-3.7-9,0-1,5.1-2.2,5.9-2.2Z" fill="#a85766"/>
        <path d="M135.6,36.4l15.9,6.6c-.2,1.1-1.8,6.8-3.1,6.8l-14.7-6.4c-.6-.6,1.4-6.8,1.9-7Z" fill="#a85766"/>
        <path d="M89.5,36.2l2.2,7.1-15,6.7c-.8-.1-2.6-5.4-3.2-6.3l16.1-7.5Z" fill="#a85766"/>
        <path d="M160.4,58.3c2.4.9,4.3-1.9,3.3-4.3s-3.4-2.5-5.3-1.4-1.7,2.2-1.9,2.3c-.4,0-5.4-4.1-6.4-4.3-.4-.5,1.9-5.8,2.4-6.3s.4-.3.9-.1,3.5,2.2,4.1,2.7c1.2.8,10.2,7.6,10.3,8.3l-6.1,5.6c-.8-1-3.8-1.9-4-3.2-.6-2.6,3.3-3.6,3.7-2.3.7,2.2-.8.1-.9.1-1-.6-2.4,2.1-.1,2.9Z" fill="#986873"/>
        <path d="M88.1,32.9c-.1,0-.3,0-.4,0-1.1,0-3.9,1.4-5,1.8-.9.2-2,1-2.5.1s-.4-1.8-.4-1.8c.1-.5,7.2-2.9,8.2-3.2,7.5-2.2,15.6-3,23.4-3.3.4.5,1.2,2.5.4,2.9-8,.1-16.1.8-23.7,3.5Z" fill="#fdfdfd"/>
        <path d="M36.9,123.9c.6,0,1.2,0,1.9,0l2.4,9.3-6.5,1.7-2.4-10.4c.1-.4,4.1-.7,4.7-.7Z" fill="#fdfdfd"/>
        <polygon points="34.4 91.5 41.1 93 38.7 102.4 32.2 101.6 34.4 91.5" fill="#fdfdfd"/>
        <path d="M51.2,62.2c.3.7.7,1.7,1.2,2.3-1.3,1.3,2.8,2.1,2.7,3.2-.8.7-4.7,6.6-5.1,6.7-.9.1-5.4-2.8-5.5-3.8s5.1-7.3,6.1-8.3.5,0,.5,0Z" fill="#986873"/>
        <path d="M49.3,151.8c.7,0,5.4,5.8,5.5,6.3.2,1.4-1.3,1-1.8,1.3-1.4.9-2.3,2.2-3.3,3.5l-5.5-6.7c0-.6,4.4-4.3,5.1-4.4Z" fill="#986873"/>
        <path d="M39.9,156.3c-.3,0-.3-.7-.4-.8,0-.7-.3-1.4-.6-1.9-2.4-4.6-5.7-10.1-7.2-15.1,0-.2.1-.6-.2-.6,0,0,0-.1,0-.2.2-1.2,1.7-1.7,2.5-1.1s2.6,7,3.1,8.2c1.6,3.4,3.7,6.8,5.6,10-.5,1.2-2.1,1.2-2.7,1.5Z" fill="#986873"/>
        <path d="M40.2,70.4c.4-.1,2.1.8,2.2,1.3s-4.1,7.1-4.8,8.4c-1.5,3.2-2.7,6.5-3.7,9.8-2,.1-2.7.3-2.3-1.8s3.1-8.4,4.1-10.5,4-7.2,4.5-7.3Z" fill="#986873"/>
        <path d="M156.2,38.2c3.1,2,6.4,3.9,9.3,6.1s7.3,5.8,7.1,6.5-1.5,1.5-1.8,1.5c-2.5-2-4.7-4.3-7.2-6.1s-8.8-5.5-8.8-6,1.2-1.9,1.3-1.9Z" fill="#fdfdfd"/>
        <path d="M68.7,38.4c.8,0,.9,1.3,1.6,1.7-2.9,2.4-6.4,4.4-9.4,6.7s-6,5.5-6.4,5.5-1.7-1.4-1.8-1.5c-.2-1.2,14.9-12.4,16.1-12.4Z" fill="#fdfdfd"/>
        <path d="M52.7,54.2c-.8,1.3-5.2,5.3-6.6,7.1s-3.5,4.8-5.2,7.3c-.1,0-2.3-.7-2.3-1.5s11.5-15,12.5-15.1,1.6,1.1,2,1.3c-.1.2-.3.8-.4.9Z" fill="#fdfdfd"/>
        <path d="M40.6,157.5l12.5,15.3c0,.5-1.7,1.6-2.2,1.5s-5.1-5.3-5.7-6-6.8-8.7-6.6-9.2,1.8-1.1,2-1.5Z" fill="#fdfdfd"/>
        <path d="M134.9,32.7c.5.9.2,1,.4,1.4-.4,0-.3.5-.7.6-1,.2-7.4-1.6-9.1-1.8-3.9-.5-7.9-.7-11.8-.8-2.5-3.1,3-2.3,5-2.3,5.3.2,11.2,1.3,16.3,2.9Z" fill="#d4a6a1"/>
        <path d="M114.1,26.5l17.8,1.8v2.6c.1,0-18.2-1.5-18.2-1.5-.7-.3-.3-2.6.4-2.9Z" fill="#fdfdfd"/>
        <path d="M106.9,29.8c1.8,0,3.6,0,5.4,0,.2.1-.1,2.2-.2,2.3-.4.3-8.7.3-10.1.4s-10.9,2.5-11.4,2.3-.5-1.7-.5-1.7c.4-1.3,14.8-3.1,16.9-3.2Z" fill="#d4a6a1"/>
        <path d="M136.8,32.7l9.2,3.9c.2.1.4-.3.5-.2.5.5.9.8,1.7.8.7.3,1.4.5,2.1.8-.1.5.5.5.8.6s2.1.8,2.3,1c.5.7-.2,2.3-.7,2.5s-8.6-3.9-9.9-4.5c-2.1-.9-6.5-1.5-7.4-3.5s0-.6-.4-1.4,0-.4.2-.4c.4.2,1.1.2,1.7.4Z" fill="#986873"/>
        <path d="M88.1,32.9c1,.2,1.6,1.9,1.1,2.5s-14.2,4.8-15.7,7c-1.3.2-1.7-1.7-1.6-2.7,0,0,.5-.2.6-.2,3.4-1.4,6.7-3.3,10.1-4.7,1.5-.3,3.8-.9,5-1.8.1,0,.3,0,.4,0Z" fill="#986873"/>
        <path d="M33.1,76.7c.2,0,2.4.8,2.4,1.3s-4.7,9.4-4.6,11.3c-.2.5-2.6-.3-2.7-.6.3-1.5,4.1-11.8,4.9-12Z" fill="#fdfdfd"/>
        <path d="M31.4,137.6c0,0,0,.1,0,.2,0,.5.2.5.2.6.4,3,2.7,6.9,3.9,9.7,0,.3-2.2,1.4-2.4,1.3-.6-.1-5-11.2-4.9-11.8s2.9-1.4,3.1-.1Z" fill="#fdfdfd"/>
        <path d="M173,61.6c-2.8-1.8-4.8.4-4.3,3.3-.8,0-4.4-3.7-4.3-4.2l4.5-4.6c.3,0,4,3.9,4.2,4.4.4.7.3.4,0,1.1Z" fill="#92757d"/>
        <path d="M154.5,40.9c.8-.1,10.4,6.8,11.5,8.1-.4.2-1.3,1.7-1.6,1.7s-3.7-3-4.3-3.5c-1.1-.7-6.8-4-6.7-4.8s.9-1.5,1.1-1.5Z" fill="#fdfdfd"/>
        <path d="M136.8,32.7c-.5-.2-1.2-.3-1.7-.4s-2.2-.7-2.3-.9c-.4-.8.2-2.4,1.6-2.4s6.1,1.8,7.2,2.3,3.8,1.5,3.8,1.7c-.5.3-1.2,2.1-1.6,2.2s-6.1-2.1-7.1-2.5Z" fill="#fdfdfd"/>
        <path d="M70.6,40.9c.3,0,1,1.6,1.3,1.9-1.8.4-10.2,7.6-10.9,7.7s-1.8-1.4-1.8-1.5c0-.7,10.6-8.2,11.3-8.1Z" fill="#fdfdfd"/>
        <path d="M71.5,183.3c-1.2,1.6.6.4-.8,2l-11.4-7.9,1.8-1.7,10.5,7.6Z" fill="#fdfdfd"/>
        <path d="M25.9,124.5h2.4c0,.1,2,10.9,2,10.9-.1,0-2.4,0-2.5,0-.5-.3-2.5-10.6-1.9-10.9Z" fill="#fdfdfd"/>
        <path d="M57.7,64.2c-.6,2.7-3.7,1.7-5.2.2s-1-1.5-1.2-2.3c.4-.4.9-2.4,2.3-2.7,2.3-.4,4.7,2.4,4.1,4.7Z" fill="#a85766"/>
        <path d="M57.7,64.2c.6-2.3-1.8-5.1-4.1-4.7,0-.9,2.5-3.8,3.2-3.7s4.9,4.3,4.9,4.8l-3.9,3.6Z" fill="#92757d"/>
        <path d="M27.7,91.1c.3-.1,2,.4,2.5.2-.5,3.4-1.5,6.9-2,10.4h-2.4c-.7-.2,1.4-10.3,1.9-10.6Z" fill="#fdfdfd"/>
        <path d="M25.5,103c.2-.1,2.4,0,2.6.3-.5,1.2-.2,9.1-.7,9.3s-2.5,0-2.6-.1c0-1.1,0-9.3.7-9.5Z" fill="#fdfdfd"/>
        <path d="M25,114c.2,0,2.3,0,2.4.1.4.4.2,7.8.8,9-.7.6-1.7.5-2.6.5-.6-.3-1.4-9.3-.6-9.6Z" fill="#fdfdfd"/>
        <path d="M30.2,124.3c.2,0,.4,0,.6,0,.2,0,.4.7.5.9.2.4,1.9,8.6,1.9,9,0,1-1.3,1.4-2,1.1s-2.4-9.1-2.4-10.6c0-.2,1.3-.5,1.3-.5Z" fill="#ded0d4"/>
        <path d="M31.1,91.1c.2,0,2,.1,2.1.2.5.5-2.5,9.1-1.8,10.6,0,.1-2,.2-2.2.1-1-.4,1.4-10.6,1.9-10.9Z" fill="#ded0d4"/>
        <path d="M173,61.6c3.7,2.3-3.6,8.5-4.3,3.3s1.6-5,4.3-3.3Z" fill="#a85766"/>
        <path d="M28.8,103.2c.2,0,2.1,0,2.2.1,0,1.2-.3,9.2-.9,9.5s-1.7,0-1.9-.2c-.6-.5,0-9.1.6-9.4Z" fill="#fdfdfd"/>
        <path d="M72.6,39.4c-.1,0-.6.2-.6.2-.5,0-1.5-1.7-1.4-1.9,0-.9,7.2-3.8,8.4-4.4.2.3,1,2.2.9,2.4,0,.4-6.7,3.6-7.2,3.8Z" fill="#fdfdfd"/>
        <path d="M48.8,62s.3.4,0,.7c-2,2.5-3.8,5.1-5.7,7.7-.5.1-1.3-.9-1.8-1.2.4-1.1,5.4-8.4,5.9-8.4s1.2,1.1,1.6,1.2Z" fill="#d4a6a1"/>
        <path d="M42.9,156.1c.7,1,6.2,7.4,6.1,7.9s-1.6,1.1-1.8,1.5c-.5,0-5.9-7.6-5.9-8.1s1.2-1,1.6-1.3Z" fill="#d4a6a1"/>
        <path d="M28.4,113.8c1,.2,1.9-.1,2.2.9-.6,1.5.9,7.3.6,8.2s-2,.7-2.4.5-1.1-8.7-.9-9.1.4-.3.5-.5Z" fill="#fdfdfd"/>
        <path d="M153.4,39.6c-.1-.2-1.9-.9-2.3-1,0-.4-.5-.5-.8-.6-.7-.3-1.4-.5-2.1-.8s-1.1-.6-1.7-.8c-.9-.9-.2-2.8.5-2.9s7.4,3.6,7.6,4-.7,2.2-1.2,2.2Z" fill="#fdfdfd"/>
        <path d="M37.5,68.7c.3-.1,2.4.7,2.4,1.3s-3.6,6.6-4,6.7-2.2-1.2-2.2-1.5,3.5-6.3,3.8-6.5Z" fill="#fdfdfd"/>
        <path d="M39.4,155.5c0,.1,0,.8.4.8-.5.2-1.7,1.4-2.4,1.2s-4-6.5-3.8-6.9l2.4-1.1c.8,2.2,2.2,4,3.4,5.9Z" fill="#fdfdfd"/>
        <path d="M49,61.6c-.3-.2-1.3-1-1.2-1.3s4.7-5.4,5.2-5.8c1.2-1,1.6-.3,2.5.9-1.9,2.2-4.3,4.2-6.1,6.5s-.2-.3-.3-.2Z" fill="#d4a6a1"/>
        <path d="M49.1,164.7c1,0,5.1,5.7,6.3,6.5-.4.3-1.2,1.4-1.8,1.3s-6.1-6.2-5.9-6.9,1.3-.9,1.3-.9Z" fill="#d4a6a1"/>
        <path d="M171.5,53.8c.5,0,5.3,5.7,6.1,6.5-.3.2-1.2,1.3-1.3,1.3-1,.2-5.2-5.6-6.3-6.3,0-.3,1.4-1.5,1.6-1.5Z" fill="#d4a6a1"/>
        <path d="M56.5,172.1c.3,0,3.5,2.9,4,3.4l-1.8,1.7-3.8-3.6c0-.3,1.3-1.5,1.6-1.5Z" fill="#fdfdfd"/>
        <path d="M58.8,49.3c.4,0,1.6,1.4,1.6,1.7s-3.6,3.4-3.8,3.4-1.6-1.5-1.6-1.7c.5-.4,3.6-3.4,3.8-3.4Z" fill="#fdfdfd"/>
        <path d="M166.5,49.3l4,3.6c-.3.2-1.4,1.5-1.6,1.5-.3,0-3.4-3.1-4-3.4l1.6-1.7Z" fill="#fdfdfd"/>
        <path d="M52.9,54.4c-.5.4-5.2,5.5-5.2,5.8s.9,1.1,1.2,1.3c0,0-.2.4-.2.4-.3,0-1.5-1.2-1.6-1.2-.5,0-5.5,7.3-5.9,8.4-.3-.2,0-.4-.4-.6,1.7-2.4,3.3-5,5.2-7.3s5.8-5.8,6.6-7.1l.2.2Z" fill="#687e8a"/>
        <path d="M114.6,33.5c-.4,0-.9,0-1.3,0v9c-.5,0-.2-.1-.5-.2.5-1.5-.8-8.7.5-9.2s1.5-.2,1.3.4Z" fill="#486f7c"/>
        <path d="M82.7,34.7c1.1-.5,3.9-1.8,5-1.8-1.2.9-3.4,1.5-5,1.8Z" fill="#687e8a"/>
        <path d="M31.6,138.4c0,0-.2-.1-.2-.6.3,0,.2.4.2.6Z" fill="#687e8a"/>
        <path d="M148.2,37.2c-.7,0-1.2-.3-1.7-.8.6.2,1.1.6,1.7.8Z" fill="#687e8a"/>
        <path d="M151.1,38.6c-.3-.1-.9,0-.8-.6.3.1.7.3.8.6Z" fill="#5e727a"/>
      </g>
      <g>
        <path d="M179.5,154.2l-6-3c2-3.3,4.1-6.7,5.7-10.2s2-6.1,2.2-6.4c.7-.7,6.8,1,6.9,1.6-2.7,6.1-4.7,12.6-8.9,17.9Z" fill="#a85766"/>
        <path d="M182.3,91.9c-.3,0-.7,0-.9-.1l-7.7-16.4c0-.7,5.7-3.7,6.5-2.9s3.8,7.1,4.3,8.2c1.4,2.9,2.3,6.1,3.7,9,0,1-5,2.2-5.8,2.2Z" fill="#a85766"/>
        <path d="M89.1,189.9l-15.7-6.6c.2-1.1,1.7-6.8,3.1-6.8l14.5,6.4c.6.6-1.4,6.8-1.8,7Z" fill="#a85766"/>
        <path d="M134.5,190.1l-2.1-7.1,14.8-6.7c.8.1,2.6,5.4,3.2,6.3l-15.8,7.5Z" fill="#a85766"/>
        <path d="M64.7,167.9c-2.4-.9-4.3,1.9-3.3,4.3s3.3,2.5,5.2,1.4,1.7-2.2,1.8-2.3c.4,0,5.3,4.1,6.3,4.3.4.5-1.9,5.8-2.3,6.3s-.4.3-.9.1-3.4-2.2-4.1-2.7c-1.2-.8-10-7.6-10.1-8.3l6-5.6c.8,1,3.7,1.9,4,3.2.6,2.6-3.2,3.6-3.7,2.3-.7-2.2.8-.1.9-.1,1,.6,2.4-2.1.1-2.9Z" fill="#fdfdfd"/>
        <path d="M135.8,193.4c.1,0,.3,0,.4,0,1,0,3.8-1.4,4.9-1.8.9-.2,1.9-1,2.4-.1s.4,1.8.4,1.8c-.1.5-7.1,2.9-8,3.2-7.4,2.2-15.3,3-23,3.3-.4-.5-1.1-2.5-.4-2.9,7.9-.1,15.9-.8,23.3-3.5Z" fill="#fdfdfd"/>
        <path d="M186.2,102.3c-.6,0-1.2,0-1.8,0l-2.3-9.3,6.4-1.7,2.3,10.4c-.1.4-4,.7-4.6.7Z" fill="#fdfdfd"/>
        <polygon points="188.6 134.7 182 133.2 184.3 123.9 190.8 124.6 188.6 134.7" fill="#fdfdfd"/>
        <path d="M172,164c-.3-.7-.7-1.7-1.2-2.3,1.2-1.3-2.8-2.1-2.6-3.2.8-.7,4.6-6.6,5-6.7.9-.1,5.3,2.8,5.4,3.8s-5,7.3-6,8.3-.5,0-.5,0Z" fill="#986873"/>
        <path d="M174,74.5c-.7,0-5.3-5.8-5.4-6.3-.2-1.4,1.3-1,1.7-1.3,1.3-.9,2.3-2.2,3.3-3.5l5.4,6.7c0,.6-4.4,4.3-5,4.4Z" fill="#986873"/>
        <path d="M183.2,70c.3,0,.3.7.4.8,0,.7.3,1.4.6,1.9,2.4,4.6,5.6,10.1,7.1,15.1,0,.2-.1.6.2.6,0,0,0,.1,0,.2-.2,1.2-1.7,1.7-2.4,1.1s-2.5-7-3.1-8.2c-1.6-3.4-3.6-6.8-5.5-10,.5-1.2,2-1.2,2.6-1.5Z" fill="#986873"/>
        <path d="M182.9,155.8c-.4.1-2.1-.8-2.1-1.3s4.1-7.1,4.7-8.4c1.5-3.2,2.6-6.5,3.7-9.8,1.9-.1,2.7-.3,2.2,1.8s-3.1,8.4-4.1,10.5-4,7.2-4.4,7.3Z" fill="#986873"/>
        <path d="M68.9,188c-3.1-2-6.3-3.9-9.2-6.1-1-.7-7.1-5.8-7-6.5s1.5-1.5,1.7-1.5c2.4,2,4.6,4.3,7.1,6.1s8.6,5.5,8.7,6-1.1,1.9-1.3,1.9Z" fill="#fdfdfd"/>
        <path d="M154.8,187.8c-.8,0-.9-1.3-1.5-1.7,2.8-2.4,6.3-4.4,9.3-6.7s5.9-5.5,6.3-5.5,1.7,1.4,1.7,1.5c.2,1.2-14.7,12.4-15.8,12.4Z" fill="#fdfdfd"/>
        <path d="M170.6,172c.8-1.3,5.1-5.3,6.5-7.1s3.4-4.8,5.1-7.3c.1,0,2.3.7,2.2,1.5s-11.4,15-12.3,15.1-1.6-1.1-1.9-1.3c.1-.2.3-.8.4-.9Z" fill="#fdfdfd"/>
        <path d="M182.5,68.7l-12.3-15.3c0-.5,1.6-1.6,2.1-1.5s5,5.3,5.6,6,6.7,8.7,6.5,9.2-1.7,1.1-1.9,1.5Z" fill="#fdfdfd"/>
        <path d="M89.8,193.6c-.5-.9-.2-1-.4-1.4.4,0,.3-.5.7-.6,1-.2,7.3,1.6,9,1.8,3.8.5,7.7.7,11.6.8,2.4,3.1-3,2.3-4.9,2.3-5.2-.2-11-1.3-16-2.9Z" fill="#d4a6a1"/>
        <path d="M110.2,199.7l-17.5-1.8v-2.6c-.1,0,17.9,1.5,17.9,1.5.7.3.3,2.6-.4,2.9Z" fill="#fdfdfd"/>
        <path d="M117.4,196.4c-1.8,0-3.5,0-5.3,0-.2-.1.1-2.2.2-2.3.4-.3,8.6-.3,10-.4s10.7-2.5,11.2-2.3.5,1.7.5,1.7c-.4,1.3-14.6,3.1-16.6,3.2Z" fill="#d4a6a1"/>
        <path d="M87.9,193.6l-9.1-3.9c-.2-.1-.4.3-.5.2-.5-.5-.9-.8-1.6-.8-.7-.3-1.4-.5-2-.8.1-.5-.5-.5-.8-.6s-2.1-.8-2.2-1c-.5-.7.2-2.3.7-2.5s8.5,3.9,9.8,4.5c2,.9,6.4,1.5,7.2,3.5s0,.6.4,1.4,0,.4-.2.4c-.4-.2-1.1-.2-1.6-.4Z" fill="#986873"/>
        <path d="M135.8,193.4c-1-.2-1.5-1.9-1.1-2.5s13.9-4.8,15.5-7c1.3-.2,1.7,1.7,1.5,2.7,0,0-.5.2-.6.2-3.4,1.4-6.6,3.3-10,4.7-1.5.3-3.7.9-4.9,1.8-.1,0-.3,0-.4,0Z" fill="#986873"/>
        <path d="M189.8,149.5c-.2,0-2.3-.8-2.3-1.3s4.6-9.4,4.5-11.3c.2-.5,2.6.3,2.6.6-.3,1.5-4,11.8-4.8,12Z" fill="#fdfdfd"/>
        <path d="M191.6,88.6c0,0,0-.1,0-.2,0-.5-.2-.5-.2-.6-.4-3-2.6-6.9-3.9-9.7,0-.3,2.2-1.4,2.3-1.3.6.1,4.9,11.2,4.8,11.8s-2.8,1.4-3.1.1Z" fill="#fdfdfd"/>
        <path d="M52.3,164.7c2.7,1.8,4.7-.4,4.3-3.3.8,0,4.4,3.7,4.3,4.2l-4.4,4.6c-.3,0-3.9-3.9-4.2-4.4-.4-.7-.3-.4,0-1.1Z" fill="#92757d"/>
        <path d="M70.5,185.4c-.8.1-10.2-6.8-11.3-8.1.4-.2,1.3-1.7,1.5-1.7s3.6,3,4.3,3.5c1,.7,6.7,4,6.6,4.8s-.9,1.5-1.1,1.5Z" fill="#fdfdfd"/>
        <path d="M87.9,193.6c.5.2,1.2.3,1.6.4s2.1.7,2.2.9c.4.8-.2,2.4-1.5,2.4s-6-1.8-7.1-2.3-3.7-1.5-3.8-1.7c.5-.3,1.2-2.1,1.5-2.2s6,2.1,7,2.5Z" fill="#fdfdfd"/>
        <path d="M153,185.4c-.3,0-1-1.6-1.3-1.9,1.8-.4,10-7.6,10.7-7.7s1.7,1.4,1.7,1.5c0,.7-10.4,8.2-11.1,8.1Z" fill="#fdfdfd"/>
        <path d="M152.1,42.9c1.2-1.6-.6-.4.8-2l11.2,7.9-1.7,1.7-10.3-7.6Z" fill="#ded0d4"/>
        <path d="M197,101.7h-2.3c0-.1-1.9-10.9-1.9-10.9.1,0,2.3,0,2.4,0,.5.3,2.5,10.6,1.8,10.9Z" fill="#fdfdfd"/>
        <path d="M165.7,162c.6-2.7,3.7-1.7,5.1-.2s.9,1.5,1.2,2.3c-.4.4-.9,2.4-2.2,2.7-2.3.4-4.6-2.4-4.1-4.7Z" fill="#a85766"/>
        <path d="M165.7,162c-.5,2.3,1.8,5.1,4.1,4.7,0,.9-2.5,3.8-3.2,3.7s-4.8-4.3-4.8-4.8l3.9-3.6Z" fill="#92757d"/>
        <path d="M195.1,135.1c-.3.1-1.9-.4-2.4-.2.4-3.4,1.5-6.9,1.9-10.4h2.3c.7.2-1.3,10.3-1.8,10.6Z" fill="#fdfdfd"/>
        <path d="M197.4,123.3c-.2.1-2.4,0-2.5-.3.5-1.2.2-9.1.7-9.3s2.5,0,2.5.1c0,1.1,0,9.3-.7,9.5Z" fill="#fdfdfd"/>
        <path d="M197.8,112.2c-.2,0-2.2,0-2.3-.1-.4-.4-.2-7.8-.8-9,.7-.6,1.7-.5,2.5-.5.6.3,1.3,9.3.6,9.6Z" fill="#fdfdfd"/>
        <path d="M192.7,101.9c-.2,0-.4,0-.6,0-.2,0-.4-.7-.5-.9-.2-.4-1.8-8.6-1.8-9,0-1,1.2-1.4,1.9-1.1s2.3,9.1,2.3,10.6c0,.2-1.3.5-1.3.5Z" fill="#ded0d4"/>
        <path d="M191.9,135.1c-.2,0-2-.1-2-.2-.5-.5,2.4-9.1,1.7-10.6,0-.1,2-.2,2.1-.1,1,.4-1.3,10.6-1.8,10.9Z" fill="#ded0d4"/>
        <path d="M52.3,164.7c-3.7-2.3,3.6-8.5,4.3-3.3s-1.5,5-4.3,3.3Z" fill="#a85766"/>
        <path d="M194.1,123.1c-.2,0-2.1,0-2.1-.1,0-1.2.3-9.2.9-9.5s1.7,0,1.8.2c.6.5,0,9.1-.6,9.4Z" fill="#fdfdfd"/>
        <path d="M151.1,186.8c.1,0,.6-.2.6-.2.5,0,1.4,1.7,1.4,1.9,0,.9-7.1,3.8-8.2,4.4-.2-.3-.9-2.2-.9-2.4,0-.4,6.6-3.6,7.1-3.8Z" fill="#fdfdfd"/>
        <path d="M174.5,164.3s-.3-.4,0-.7c2-2.5,3.8-5.1,5.6-7.7.5-.1,1.3.9,1.7,1.2-.4,1.1-5.3,8.4-5.8,8.4s-1.2-1.1-1.5-1.2Z" fill="#d4a6a1"/>
        <path d="M180.3,70.2c-.7-1-6.1-7.4-6-7.9s1.6-1.1,1.7-1.5c.5,0,5.8,7.6,5.8,8.1s-1.2,1-1.5,1.3Z" fill="#d4a6a1"/>
        <path d="M194.5,112.4c-.9-.2-1.9.1-2.1-.9.5-1.5-.9-7.3-.6-8.2s2-.7,2.3-.5,1.1,8.7.9,9.1-.4.3-.5.5Z" fill="#fdfdfd"/>
        <path d="M71.6,186.6c.1.2,1.9.9,2.2,1,0,.4.5.5.8.6.7.3,1.4.5,2,.8s1.1.6,1.6.8c.9.9.2,2.8-.5,2.9s-7.3-3.6-7.4-4,.7-2.2,1.2-2.2Z" fill="#fdfdfd"/>
        <path d="M185.6,157.5c-.3.1-2.3-.7-2.3-1.3s3.6-6.6,4-6.7,2.1,1.2,2.1,1.5-3.4,6.3-3.8,6.5Z" fill="#fdfdfd"/>
        <path d="M183.6,70.8c0-.1,0-.8-.4-.8.4-.2,1.7-1.4,2.3-1.2s3.9,6.5,3.8,6.9l-2.3,1.1c-.8-2.2-2.2-4-3.4-5.9Z" fill="#fdfdfd"/>
        <path d="M174.3,164.7c.3.2,1.2,1,1.2,1.3s-4.6,5.4-5.1,5.8c-1.2,1-1.6.3-2.4-.9,1.9-2.2,4.2-4.2,6-6.5s.2.3.3.2Z" fill="#d4a6a1"/>
        <path d="M174.2,61.6c-1,0-5-5.7-6.2-6.5.4-.3,1.2-1.4,1.7-1.3s6,6.2,5.8,6.9-1.2.9-1.3.9Z" fill="#d4a6a1"/>
        <path d="M53.8,172.5c-.5,0-5.3-5.7-6-6.5.3-.2,1.2-1.3,1.3-1.3,1-.2,5.2,5.6,6.2,6.3,0,.3-1.4,1.5-1.5,1.5Z" fill="#d4a6a1"/>
        <path d="M166.8,54.2c-.3,0-3.5-2.9-4-3.4l1.7-1.7,3.8,3.6c0,.3-1.3,1.5-1.5,1.5Z" fill="#fdfdfd"/>
        <path d="M164.6,177c-.4,0-1.6-1.4-1.5-1.7s3.5-3.4,3.8-3.4,1.6,1.5,1.5,1.7c-.5.4-3.5,3.4-3.8,3.4Z" fill="#fdfdfd"/>
        <path d="M58.7,177l-4-3.6c.3-.2,1.4-1.5,1.5-1.5.3,0,3.4,3.1,4,3.4l-1.5,1.7Z" fill="#fdfdfd"/>
        <path d="M170.4,171.8c.5-.4,5.1-5.5,5.1-5.8s-.9-1.1-1.2-1.3c0,0,.2-.4.2-.4.3,0,1.4,1.2,1.5,1.2.5,0,5.4-7.3,5.8-8.4.3.2,0,.4.4.6-1.7,2.4-3.3,5-5.1,7.3s-5.8,5.8-6.5,7.1l-.2-.2Z" fill="#687e8a"/>
        <path d="M109.7,192.7c.4,0,.9,0,1.3,0v-9c.4,0,.2.1.5.2-.5,1.5.8,8.7-.5,9.2s-1.5.2-1.3-.4Z" fill="#486f7c"/>
        <path d="M64.7,167.9c-2.1.3-3.6,2.1-3.3,4.3-1-2.4.9-5.2,3.3-4.3Z" fill="#c77c7a"/>
        <path d="M141.1,191.5c-1.1.5-3.8,1.8-4.9,1.8,1.2-.9,3.4-1.5,4.9-1.8Z" fill="#687e8a"/>
        <path d="M191.4,87.8c0,0,.2.1.2.6-.3,0-.2-.4-.2-.6Z" fill="#687e8a"/>
        <path d="M76.7,189.1c.7,0,1.2.3,1.6.8-.6-.2-1.1-.6-1.6-.8Z" fill="#687e8a"/>
        <path d="M73.9,187.6c.3.1.9,0,.8.6-.3-.1-.7-.3-.8-.6Z" fill="#5e727a"/>
      </g>
      <ellipse cx="110.9" cy="113.1" rx="63.1" ry="62.6" fill="#e3e3e3"/>
      <path d="M111.3,37.5c1.4,4,5.1,7.2,4.9,11.7,14.5,1.2,28.3,7.4,38.7,17.4,3.2-3.9,8.9-1.8,12.9-4.4-3.8,3-2.1,8.9-6.6,11.3,8,9.8,13,22.1,14,34.8,1.1.3,2.4.2,3.5.7,2.5.9,4.6,3.9,7.5,4.2-3.9,1.2-6.6,5.2-11,4.9-1,12.6-6.1,24.8-14,34.6,4.5,2.8,2.8,8.4,6.6,11.7-3.8-2.8-9.9-.8-12.9-4.6-10.4,9.8-24.2,16.1-38.5,17.2,0,4.7-3.6,7.6-4.9,11.7-.9-2.7-3.5-5.1-4.4-7.6s-.5-2.7-.7-4.1c-14.4-1-28.1-7.4-38.5-17.2-3.2,3.8-8.9,2-12.7,4.4,3.4-3.3,2.1-8.6,6.2-11.5-7.7-9.9-13-21.9-13.8-34.6-1.1-.2-2.1,0-3.3-.5-2.7-.9-4.8-3.9-7.6-4.2,2.9-.8,5-3.7,7.8-4.6s2.1-.2,3.1-.5c.8-12.7,6-24.8,13.8-34.8-4.2-2.6-2.9-8-6.2-11.3,3.2,2.2,7.5,1.2,10.9,2.7s1.5,1.5,1.9,1.5,6.5-5.4,7.7-6.2c9.1-6.2,19.8-10,30.8-11,.2-1.5.3-2.8.8-4.2,1-2.4,3.5-4.8,4.1-7.5Z" fill="#3f6170"/>
      <ellipse cx="111.5" cy="114" rx="56.9" ry="55.5" fill="#fff"/>
      <g>
        <path d="M153.9,90.3c0,.2-.2.4-.2.9,0,.9-.4,2.4-.4,3.3s-.3,1,0,1.9,3.8,4.1,4.1,4.3,1.3.4,1.9.7c-.1.4-.6,0-.2.7s4.2,4.1,4.6,4.2v1.1l-.2.2c0,.3,0,.7,0,.9-.2.6-.1,1-.2,1.3-.2.6-.5,1.8-.7,2.2s-.5,1.3-.7,1.5-.7,1-.9,1.3c-1.5,2.3-3.8,4.1-6.2,5.5s-2.4,1-3.5,1.7c1.9,1.1,4.9,1.8,5.1,4.3-4.3,4.5-3.3,4.1-9.5,6.6s-.9.3-1.3.4-1,.2-1.5.4c-1.1.4-2.2.8-3.3,1.3s-2.5.7-2.6,1c0,.6.5,1.1.7,1.7.6,1.7,1.3,2.9,1.8,4.9s.1,1.2.2,1.8.2,1,.2,1.5c.1.8.2,1.6.2,2.4s.2.5.2.7c0,1.2,0,3,0,4.2s-.4,0-.4.1c0,.4,0,1.3,0,1.9s0,1.3-.2,2c-.1,0-.3,0-.4,0,1.1-3.1,0-20.4-3.7-20.7s-1.3.7-1.8.9c-1.6.7-2.8,1.6-4.2,2.2s-.6.3-.9.4c-5,2.2-8.8,2.1-12.8-2,6.4,4.3,10,3.7,15.9-1.1-.1.1-1.6,1.4-1,1.5.6-.4,1.6-1.5,2.1-1.8,5.3-3.1,12.2-4.1,17.4-7.1s3.5-2.1,4.4-4.1c0-.3-3.7-1.9-4.2-2.1l-3.5-2c0,0,.2,0,.2,0,7-1.7,14.7-7.3,14.6-15.1l-10.7-10.5c-1.1.2-.6,1.1-.8,1.8s-.2,1.6-.4,2.4c-1.1,4.1-2.6,6.4-5.1,9.7s-5.1,6-7.5,8.4-4,3.4-5.5,5.5c-1.8.8-3.4,2-5.2,2.9-.7,0,.1-.6.2-.7,1-.7,2.1-1.3,3.2-2.2,2.7-2.2,3.7-3.3,6-6,1.4-1.7,3-3.2,4.2-5.1,1.6-1.5,2.9-3.3,4.2-5.1,3.3-4.7,4-7.2,6-12.5s.8-.3.9-.4c.8-1.7,1.3-9.4-1.1-10.3s-3.1,0-4.4-.2-.6-.2-.7-.2c.3,0,.2-.2.2-.2,6.9-3.6,7.8.5,7.7,6.6Z" fill="#392017"/>
        <path d="M113.3,136.2c0,.5.4.8.7,1.1-.2,1.2,1.1,2.4,1.5,3.4s-.6-.2-.2.8,2.2,2.2,2.9,2.6c6.2,4.3,16,4.5,21,11.5.2.4.3.8.7,1.1,0,.1,0,.3,0,.4s0,.3,0,.4c0-.6-1.1-1-1.1-1.1,0-.2.5,0-.4-1.1s-1.7-1.8-2.9-2.6-.3-.2-.4-.2c-2.2-1.4-3.1-1.5-5.3-2.4s-7.7-3.2-9.3-3.1c-.4-.8-1-.8-1.8-.9s-.4,0-.7-.2c-.6-1.4-3.6-3.7-4.3-5.3-.7,3.8-3.3,5.5-5.4,8.2s-.7.9-1.1,1.3c-1.6,2-3,4.5-4.6,6.4s-.6.8-.7.9c-.8.9-2.4,1.2-2.2,2.4-1,0-2.7,1.6-4,2.2s-.4.3-.7.2c2.3-2,4.6-3.4,6.4-6,2.2-2.6,3.7-6.1,5.7-8.7,1-1.3,3.9-3,4.4-4.7s0-.1,0-.2c1-1.1.9-2.8,1.1-4.2s0-1.1,0-1.5c.2-1.2.5-.5.7-.7Z" fill="#392017"/>
        <path d="M103,153.1c-.5.8-1.1,2.5-1.5,3.1-1.8,2.5-4.1,4-6.4,6s-.6.6-.9.9-.8.8-1.3.7c1.3-2.3,3-4.5,3.5-7.2.6-.3.2,1.5.2,1.5-.2,1-1.2,2.2-1.8,3.1.8-.1,1.3-1.3,1.8-1.9,1.5-1.7,2.4-3.1,3.7-5.1,1,1.2,1.6-3,2.6-1.1Z" fill="#b6cc2c"/>
        <path d="M140.2,157.1s.2.9-.4,0c0-.1,0-.3,0-.4.1-1.8-.1-3.1-.2-4.9-.2-3.7-.4-8.3-2-11.7l.7,1c-.2-1.7-.8-3.3-1.8-4.7,3.7.3,4.8,17.7,3.7,20.7Z" fill="#e8eeb3"/>
        <path d="M148,122.5c.9,1.3,5.6,2.1,6.2,2.9l-12.2,5.5.3.9c-4.7,1.6-5.2,1-9,4.9s-.4.2-.4.2c-5.8,4.8-9.5,5.4-15.9,1.1-.8-.6-1.1-1.1-1.3-1.3,2.4,0,10.5-1.3,6.3-4.6s-3.7-1.4-5.2-2.6c5.3-1.7,13-1.9,18.6-3.1s9.1-3.1,12.7-3.7Z" fill="#9d162b"/>
        <path d="M88.4,116.8l-2.2,2.3c7.9,7.8,18.2,14.5,29.8,14.7-8.6,1.2-18.6,3.3-26.4-1.8-2.1-1.4-4.6-4.2-6.3-6.2l-3.3-6,3.5-3.2c-1.3-1.4-2.7-2.6-4-4.1l1.9-2.2c2.4,2,4.5,4.4,6.9,6.4Z" fill="#e22d4c"/>
        <path d="M111.6,128c1.4.7,3,1.1,4.4,1.8s5.7,2.7,5.7,3c.1.8-5,1-5.7,1-11.6-.2-21.8-6.8-29.8-14.7l2.2-2.3c5.3,4.3,14.7,11.1,21.5,11.9s1.3,0,1.7-.7Z" fill="#b42a3b"/>
        <path d="M115.5,136.6c.2.2.5.7,1.3,1.3,4,4.1,7.8,4.2,12.8,2,4.1,4,7.8,8.2,9.5,13.8.7,0,0-1.3-.2-1.7l.7-.2c.1,1.7.4,3.1.2,4.9-.4-.3-.5-.7-.7-1.1-.4-1-.9-2.9-2-4-2.1-6.4-9.7-6.7-14.6-7.9s-5.4-3.2-7.2-5.5c-.1,1.4-.9-.2-1.4-.9s-.7-.6-.7-1.1c.1-.1-.4-.3-.1-.4,1.3-.6,1.4.2,2.3.9Z" fill="#3d8a1c"/>
        <path d="M82.2,108.4l-1.2,1.5c-.4-.5-1-.9-1.4-1.3-3.5-3.1-6.9-7.2-9.6-11-.2.2-.3.4-.6.7l-.2-.2c1.3-1.9,2.2-4,4-5.5.8,6.3,4.6,11.5,9,15.9Z" fill="#f5636e"/>
        <path d="M98.3,154.5h-.4c1-4.9,1.9-8.3,3.5-13s.6-1.6.9-2.4l1.3-2c1.5-.4,3.8-.7,5.3-.9-4.2,6.2-8.2,11-10.6,18.3Z" fill="#5f713b"/>
        <path d="M69.5,98.2c-1,1.1-3.1,4.4-2.9,5.8s12.9,12.3,13.5,15.8l3.3,6c-2.2-2.5-16.4-19.3-17-20.6-1.5-3.5,1.2-4.7,2.9-7.2l.2.2Z" fill="#fffeff"/>
        <path d="M101.4,141.5c-1.7,4.7-2.5,8.1-3.5,13s-.8,3.1-1.3,4.9c-.5.6-1,1.7-1.8,1.9.5-.9,1.5-2.1,1.8-3.1s.4-1.9-.2-1.5c-.5,2.7-2.2,4.9-3.5,7.2s-.2.2-.2.2c-.3,0-.7-.7-.7-.9s0-.3,0-.4.6-.5.9-1.1c.5-1,1-2.1,1.5-3.1.7-1.5,1.9-2.4,2.2-4.9,0-.2-.2-.2-.2-.4.2,0,.3-.1.4-.2s.3,0,.4-.1l3.1-10.7c.3-.2.6-.8,1.1-.7Z" fill="#39591b"/>
        <path d="M112.7,136.8c0,.5,0,1.1,0,1.5-3.5,2.3-7.8,5.9-10.4,9.3l7.9-11.2c.9,0,1.8-1.5,2.4.4Z" fill="#537d33"/>
        <path d="M110.3,136.4l-7.9,11.2c-2.1,2.8-3.1,6-4.5,9-.3,0,.4-1.8.6-2.2,2.4-7.3,6.4-12.1,10.6-18.3.6,0,1,.2,1.3.2Z" fill="#253e12"/>
        <path d="M96.8,152.9c.7-1.6-1-7.5-.7-8.5s3.5-1.8,4.2-2.3l-3.1,10.7c-.1.2-.4,0-.4.1Z" fill="#537d33"/>
        <g>
          <path d="M66.6,124.7c3.7.3,5.7-.2,9.3-.4s3.5-.6,4.7,0,5.1,6.3,6.5,7.5c-.7,1.6-.9,0-1,0-.8,0-2.5.5-3.5.4-4.2-.3-10.9-1.3-14.3-3.5s-4.4-3.4-4.6-3.7.3-.5-.1-.9c1.2,0,2,.6,3.1.7Z" fill="url(#Dégradé_sans_nom_88)"/>
          <path d="M75.9,123.8l-9.3.9c-1.1,0-1.9-.7-3.1-.7s-.2,0-.2,0c-.4-.2-.8-.5-1.1-.9,5.6.5,9.7-.3,13.7-4.4,1.4,1,2.3,2.5,3.3,3.9l-3.3,1.2Z" fill="#39591b"/>
          <path d="M87.1,131.7c.6.5,2.1.9,2.3,1.8l-4.6-.2.2-.4c-2.9.4-4.9.4-7.7,0s-.4-.7-.4-.7c-4.1-.8-4.9-.2-8.9-2.6-2.2-1.4-4.1-3.3-6-5.2.8.3,1.2-.3,1.3-.3s.1,0,.2,0c.4.4-.2.6.1.9s4.2,3.4,4.6,3.7c3.4,2.3,10.2,3.2,14.3,3.5s2.7-.5,3.5-.4.3,1.6,1,0Z" fill="#e8eeb3"/>
          <path d="M69,120.7c.8,1.3,1.6,0,2.6,0-3.5,1.7-6.2,1.6-10,1.8-.2.3.5.6.6.7.3.4.7.6,1.1.9,0,0-.5.6-1.3.3,1.8,1.8,3.7,3.8,6,5.2v.7c-2.5-1.7-4.6-3.5-6.6-5.7s-.1-.1-.2-.2c-.4-.4-.7-.9-1.1-1.3s-.8-.5-.8-.9c2.7-.3,6-.3,8.6-.9s.7-.8.9-.9c.5-.1.3.4.3.4Z" fill="#2a241b"/>
          <path d="M75.9,118.7c-3.9,4.1-8.1,4.9-13.7,4.4,0,0-.8-.4-.6-.7,3.8-.2,6.5,0,10-1.8s2.6-1.7,3.9-2.6c.3.1.3.6.3.7Z" fill="#e0ea85"/>
          <path d="M75.9,123.8v.4c-3.5.3-5.5.7-9.3.4l9.3-.9Z" fill="#39591b"/>
        </g>
        <path d="M153,117.6c-2.1.9-5.8,1.3-7.7,2.4l-1.3-2.2c4.6-3.3,7-7.2,10.8-11.1,0-3-1.9-4.8-4-6.7.2-.8.3-1.6.4-2.4,1.6,2,10.4,7.3,10.8,9.4.7,3.4-6.1,9.5-9,10.7Z" fill="#cc0f2b"/>
        <path d="M143.6,103.3c-1.1,3.1-2.4,6.3-4,9.2s-2.3,3.1-2.9,4.4-.4.5.2.8c-2.3,2.7-3.2,3.8-6,6l-.2-.2c5.5-4.7,7.9-13.1,8.4-20.2s-.7-8.5-.4-10.1,2.3-3.1,2.6-4.1c1.6,0,4.2-1.8,5.1.1.9,1.9-2,11.8-2.9,14.2Z" fill="#9d162b"/>
        <path d="M144,117.9c-3.9,2.8-7.1,3.8-11.2,5.7,1.5-2.1,3.7-3.7,5.5-5.5,2.5-1.8,5-4.3,6.8-6.7.2-.2,1-1.4.7-1.7,2.5-3.3,4-5.6,5.1-9.7,2,1.9,4,3.7,4,6.7-3.8,4-6.2,7.9-10.8,11.1Z" fill="#9d162b"/>
        <path d="M151.1,84.3c1,7.9-2.6,16-5.7,23.2-1.3,1.8-2.6,3.6-4.2,5.1,1.2-1.9,3.2-6.4,4.2-8.8s4-13.3,3.1-16.4c-.4-1.5-1.9-1.8-1.8-3.2,1.4.2,3-.3,4.4.2Z" fill="#e22d4c"/>
        <path d="M145.3,120.1c-3.4,2.1-.8,1.8,1.1,1.5.3,1.3-1.8,1.6-2.8,2-1.9.7-16.4,4.1-17.1,3.2.9-1.6,2.8-2.3,4.2-3.4l.2.2c-1.1.9-2.2,1.5-3.2,2.2s-.9.7-.2.7c1.8-.9,3.4-2,5.2-2.9,4.1-1.9,7.4-3,11.2-5.7l1.3,2.2Z" fill="#9d162b"/>
        <path d="M143.8,83.7c0,0,.1,0,.2,0,.7,0,1.3.1,2,.2s.2.2.7.2c-.1,1.4,1.3,1.7,1.8,3.2.9,3.1-1.9,13.2-3.1,16.4l-1.8-.4c.8-2.4,3.7-12.3,2.9-14.2-.9-1.9-3.5-.1-5.1-.1.5-1.7.8-4.1-.2-5.6,0-.5,2,.2,2.6.3Z" fill="#e22d4c"/>
        <path d="M134.7,137.3c1.2.3,2.3,1.8,2.9,2.9,1.6,3.4,1.8,8,2,11.7l-.7.2c-1.7-4.9-4.8-8.9-8.4-12.6,1.4-.6,2.6-1.5,4.2-2.2Z" fill="#5f713b"/>
        <path d="M148.2,121.4c.9-1.8,3.6-2.2,4.9-3.7,2.9-1.2,9.8-7.3,9-10.7s-9.2-7.4-10.8-9.4c.1-.7-.3-1.5.8-1.8l10.7,10.5c.1,7.8-7.6,13.5-14.6,15.1Z" fill="#f4acb2"/>
        <path d="M145.3,107.5c3.1-7.1,6.7-15.3,5.7-23.2,2.4.8,1.9,8.6,1.1,10.3s-.7,0-.9.4c-2,5.2-2.6,7.8-6,12.5Z" fill="#fdcfd0"/>
        <path d="M150.8,128.2c.8.4.7.6.4,1.3-5.2,3-12.1,4-17.4,7.1h-.7c3.8-3.8,4.4-3.2,9-4.9,3.2-1.1,5.5-1.8,8.6-3.5Z" fill="#f4acb2"/>
        <path d="M145.3,103.7c-.9,2.5-3,7-4.2,8.8s-2.8,3.4-4.2,5.1c-.6-.3-.4-.3-.2-.8.6-1.3,2.1-3,2.9-4.4,1.6-2.9,2.9-6.1,4-9.2l1.8.4Z" fill="#cc0f2b"/>
        <path d="M153,117.6c-1.3,1.6-4,1.9-4.9,3.7,0,0-.2,0-.2,0-.3,0-1.2.2-1.5.2-1.9.3-4.5.5-1.1-1.5s5.6-1.5,7.7-2.4Z" fill="#e22d4c"/>
        <path d="M151.5,123.4c.5.2,4.1,1.8,4.2,2.1-.9,2-2.6,3.1-4.4,4.1.2-.7.3-1-.4-1.3,1.3-.7,2.7-1,3.5-2.3.1-.5-.1-.4-.2-.6-.6-.7-5.3-1.6-6.2-2.9,1.6-.3,2.1.3,3.5.9Z" fill="#f0b4a3"/>
        <path d="M138.9,152c.1.4,1,1.7.2,1.7-1.7-5.6-5.4-9.8-9.5-13.8.3-.1.6-.3.9-.4,3.6,3.6,6.7,7.7,8.4,12.6Z" fill="#253e12"/>
        <path d="M138.3,118.1c2.4-2.4,5.5-5.7,7.5-8.4.4.3-.5,1.4-.7,1.7-1.8,2.5-4.3,4.9-6.8,6.7Z" fill="#cc0f2b"/>
        <path d="M136.5,136.4c1,1.4,1.6,3.1,1.8,4.7l-.7-1c-.5-1.1-1.6-2.6-2.9-2.9.4-.2,1-1,1.8-.9Z" fill="#445224"/>
        <path d="M133.9,136.6c-.5.3-1.5,1.4-2.1,1.8-.6-.1.9-1.4,1-1.5s.4-.2.4-.2h.7Z" fill="#b08262"/>
        <path d="M111.6,128c-.3.8-1,.7-1.7.7-6.8-.8-16.2-7.6-21.5-11.9-2.4-2-4.6-4.3-6.9-6.4l-1.9,2.2c-1.7-2-2.3-1.4,0-4,.5.4,1,.8,1.4,1.3l1.2-1.5c7.3,7.2,20.1,15,29.3,19.6Z" fill="#e22d4c"/>
        <path d="M112.7,138.4c-.2,1.4,0,3.1-1.1,4.2,0,0-.1-.9-.1-1.1-2,2.2-4.8,3.7-6.7,5.8-1.9,2.1-2.9,4.7-4.4,6.9s-2.2,3.3-3.7,5.1c.6-1.7.9-3,1.3-4.9h.4c-.1.4-.8,2.1-.6,2.2,1.4-3.1,2.4-6.3,4.5-9,2.5-3.3,6.9-7,10.4-9.3Z" fill="#a7bb45"/>
        <path d="M111.6,142.6c0,0,0,.2,0,.2-2.8,2.3-6,5.7-7.9,8.7s-.2,1-.7,1.7c-1-1.9-1.6,2.3-2.6,1.1,1.5-2.3,2.5-4.9,4.4-6.9,1.9-2.2,4.8-3.7,6.7-5.8,0,.2.1,1,.1,1.1Z" fill="#d0e44b"/>
        <path d="M129.9,147.6c2.6,1.5,5.2,3.1,7.4,5.1,0-.2,0-1.1-.1-1.1,1.1,1.1,1.6,2.9,2,4-4.9-6.9-14.7-7.2-21-11.5l11.7,3.5Z" fill="#e8eeb3"/>
        <path d="M122.4,144.1c2.9,1.2,4.8,2,7.5,3.5l-11.7-3.5c-.6-.4-2.6-2-2.9-2.6l.8-.9c1.7,2.5,4,2.5,6.3,3.5Z" fill="#bbdb63"/>
        <path d="M122.6,143.7l-.2.4c-2.3-1-4.6-1.1-6.3-3.5l-.8.9c-.4-1,.3-.6.2-.8-.5-1-1.7-2.2-1.5-3.4.6.7,1.3,2.3,1.4.9,1.8,2.3,4.3,4.8,7.2,5.5Z" fill="#7e9824"/>
        <path d="M111.6,142.8c-.5,1.8-3.4,3.4-4.4,4.7-2.1,2.6-3.6,6.1-5.7,8.7.4-.6,1-2.3,1.5-3.1s.6-1.5.7-1.7c2-3,5.1-6.4,7.9-8.7Z" fill="#e8eeb3"/>
        <path d="M150.8,128.2c-3.1,1.7-5.4,2.4-8.6,3.5l-.3-.9,12.2-5.5c0,.1.3,0,.2.6-.9,1.3-2.2,1.6-3.5,2.3Z" fill="#e22d4c"/>
        <path d="M79.6,108.6c-2.3,2.6-1.7,2,0,4s2.6,2.7,4,4.1l-3.5,3.2c-.6-3.5-13.2-14.3-13.5-15.8s1.8-4.8,2.9-5.8.3-.5.6-.7c2.7,3.8,6.1,7.9,9.6,11Z" fill="#f5636e"/>
        <path d="M137.2,151.6c0,0,0,.9.1,1.1-2.2-2-4.8-3.6-7.4-5.1-2.7-1.5-4.6-2.3-7.5-3.5l.2-.4c4.8,1.3,12.5,1.5,14.6,7.9Z" fill="#91ca36"/>
        <path d="M96.6,153.6c-.3,2.5-1.5,3.4-2.2,4.9,0-.2,0-.5-.2-.7l2.4-4.2Z" fill="#979eb3"/>
        <g>
          <path d="M73.2,92.5c-1.8,1.5-2.7,3.6-4,5.5s-4.3,3.6-2.9,7.2,14.8,18.1,17,20.6,4.1,4.8,6.3,6.2c7.7,5.1,17.8,3,26.4,1.8.8,0,5.9-.2,5.7-1s-5-2.6-5.7-3c.6.1.3-.3.7-.4,1.5,1.2,3.7,1.5,5.2,2.6,4.2,3.4-3.9,4.7-6.3,4.6-.9-.7-1.1-1.4-2.3-.9s.2.3.1.4c-.2.2-.4-.5-.7.7-.6-1.9-1.5-.5-2.4-.4s-.7-.3-1.3-.2c-1.5.1-3.8.5-5.3.9s-.6-.6-1.1.1c-.3.5-.1,1.6-.2,1.9-.3.8-.6,1.6-.9,2.4-.5-.1-.8.5-1.1.7-.7.5-4.1,2.1-4.2,2.3-.3,1,1.3,6.9.7,8.5-.1,0-.3.2-.4.2.1-1.6,0-3.1-.2-4.6s-.3-2.7-.6-4c-2.8.8-6.5.4-9.2,1.1s-4.1,2.1-5.1,3.5c-.9-.4-.5-.2-.9.2-.5.7-4.1-6.1-4.2-7.5s.3-1.9.2-2.2l2-5.2c-.1-.5-4.1-1-4.9-1.2s-1.5-.5-2-.7-1.1-.7-1.5-.9c-1-.5-1.4-1-2.2-1.5v-.7c4,2.4,4.9,1.9,8.9,2.6s-.2.6.4.7c2.9.4,4.8.4,7.7,0l-.2.4,4.6.2c-.2-.8-1.7-1.2-2.3-1.8-1.4-1.2-6.1-7.3-6.5-7.5-1.2-.6-3.4,0-4.7,0v-.4l3.3-1.2c-1-1.4-1.9-2.9-3.3-3.9s0-.5-.3-.7c-1.2,1-2.4,1.9-3.9,2.6-1.1,0-1.9,1.3-2.6,0,.1,0,.3,0,.4,0,.6-.2,1-.6,1.5-.9s.6-.3,1.1-.7,2.5-1.5,2.4-2.3-6.9-7.4-7.7-8.5c.2-.7-.5-.8-.7-1.1-1.4-2.2-2.2-4.4-.7-6.7s1.3-.9,1.8-1.4c.8-.9,1.5-1.9,2.2-2.9s2.1-1.4,1.8-2.9c.6-.5,1.1-1.1,1.8-1.5,0,.4.2.5.2.7Z" fill="#392017"/>
          <g>
            <path d="M97.2,136.2c-2.4,1.8-5.6,2.1-8.2,3.1s-5.5,2.1-8.4,3.1c.2-2.9,2.4-4.8,3.7-7.1,4.5.3,8.3,0,12.8.9Z" fill="#537d33"/>
            <path d="M101.7,138.1c-2,1-4,3.4-6.4,3.5s-3.7-.8-5.7-.7l-.4-1.8c2.6-1,5.8-1.3,8.2-3.1,1.6.3,5,.2,4.4,2Z" fill="#616326"/>
            <path d="M89.5,141c2.1-.1,4.1.7,5.7.7-1.1,1.2-3.1.6-4.5.9-3.6.7-5.4,2-8,4.4s-1.5,1.7-1.7,1.8c-.6,0-1.1-1.5-1.9-1.2l1,3.4c-.6.3-2.3-2.9-2.5-3.5.4,0,.2-.8.2-1.1l1.1-.7c-.2.7-.4,1.3-.4,2.1.2.4,1.2-3,1.3-3.4,2.1,1.9,5.7-2.5,7.8-3.1s1.3-.2,1.9-.2Z" fill="#a7bb45"/>
            <path d="M84.5,135.3c-1.4,2.3-3.6,4.2-3.7,7.1,0,0-.2,0-.2,0-.6.3-1.3,2.4-1.5,3.3l-1.1.7c0-.5-.2-.8-.2-1.1.6-.7.9-2.1-.2-2,0-.7,1.1-5.4,1.3-6.1s1.2-2.2,1.5-2.3c1.3-.7,3,.4,4.2.4Z" fill="#3d8a1c"/>
            <path d="M101.7,138.1c-1.7,5.2-15.1,5.5-19,8.8,2.6-2.4,4.4-3.7,8-4.4s3.4.4,4.5-.9c2.4-.1,4.4-2.5,6.4-3.5Z" fill="#efeabf"/>
            <path d="M80.3,134.8c-.3.2-1.4,1.9-1.5,2.3-.2.7-1.3,5.3-1.3,6.1s.1,1.3.2,2,.2.6.2,1.1.1,1-.2,1.1c-1-2.6-.8-6-.2-8.7.2-.9,1.5-5,2.9-3.9Z" fill="#e8eeb3"/>
            <path d="M103.6,137l-1.3,2c0-.3,0-1.4.2-1.9.5-.8,1,0,1.1-.1Z" fill="#445224"/>
            <path d="M89.1,139.2l.4,1.8c-.6,0-1.3,0-1.9.2-2.1.6-5.7,5-7.8,3.1.2-.7.5-1.3.7-2,0,0,.2,0,.2,0,2.9-1,5.6-2,8.4-3.1Z" fill="#6a9133"/>
            <path d="M80.5,142.3c-.2.7-.4,1.3-.7,2s-1.1,3.8-1.3,3.4c0-.8.2-1.4.4-2.1s.9-3,1.5-3.3Z" fill="#39591b"/>
            <path d="M77.6,145.2c0-.7-.2-1.2-.2-2,1.2,0,.8,1.3.2,2Z" fill="#85a841"/>
          </g>
        </g>
        <g>
          <path d="M115.3,61.6c.5,0,.7.2.9.2.5,0,1.1,0,1.5,0,1.2.2,2.6.6,3.7,1.1s1.1.8,1.8,1.1c1.9.8,4,1.6,6,2.4,3.5,1.5,4.9,2.8,7.3,5.7.3.4.9,1,1.1,1.3s.6.8.7.9c.9,1.5,1.2,3,1.8,4.6s.1.7.2.9c.7,2.1,0,2.3,2.4,3.3s.9,0,1.1.4c-.7-.1-2.6-.8-2.6-.3,1,1.5.8,3.9.2,5.6s-2.6,3.6-2.6,4.1c-.3,1.6.6,7.6.4,10.1-.5,7.1-2.9,15.5-8.4,20.2s-3.3,1.8-4.2,3.4c.6.9,15.2-2.5,17.1-3.2s3.1-.7,2.8-2c.4,0,1.2-.2,1.5-.2l3.5,2c-1.4-.5-2-1.2-3.5-.9-3.6.7-8.6,2.9-12.7,3.7s-13.4,1.3-18.6,3.1,0,.6-.7.4c-1.4-.7-3-1.1-4.4-1.8-9.2-4.6-22-12.4-29.3-19.6s-8.2-9.6-9-15.9c0-.2-.2-.3-.2-.7,0-1.1,0-2.6,0-3.7s0-.3,0-.4c0-1.2.4-2.7.7-4s.1-1,.2-1.5c.3-1.1.7-2.7,1.1-3.7s.5-.8.7-1.1c.4-.8,1.8-2.9,2.4-3.5s.7-.5.9-.7,1-.6,1.1-.7c1.6-.5,4.2-.2,6.2-.4s1.2-.3,1.8-.4,2.5,0,3.2-.2,4-3.7,5.2-4.4.8-.5,1.1-.7,1.3-.6,1.8-.9c.8-.4,1.6-.8,2.4-1.1,1.7-.7,4.4-1.9,6.2-2.2s.6,0,.9,0,.5-.2.9-.2c1.9-.2,3.8-.3,5.7-.2Z" fill="#481716"/>
          <g>
            <path d="M138.5,98l-3.1,17.6c-.7,1.7-1.7,4.6-3.5,5.4,3.1-4.6,3.4-10.6,2.8-16-.4,2.2.1,4.5-.1,6.7s-2.2,10.6-5.4,11.1-6-3.6-8.4-5.3c-4.1-2.8-8.6-5-12.8-7.7l-.2-.7c1.3-.2,2.5-1.1,3.6-1.5,4.7-1.8,8.8-1.3,13.3-2.2,6.2-1.2,6.8-4.5,10.3-8.8,1-1.3,2.3-2.5,3.4-3.7.2.2.1,4.4.1,5.1Z" fill="#9d162b"/>
            <path d="M111.6,115.6c.5.3,1.8.6,2,1,.6,1.5-1.7,4.5,2,6.1.1,2.2,4.5,2.5,4.9,4.6-3.7.1-7.1-.3-10.6-1.5s-16.2-9.4-19.8-13c-.4-3.4.7-7.5.4-10.8,1.8,1.5,2.6,4.1,4,5.8,3.8,4.6,11.7,6,17.2,7.8Z" fill="url(#Dégradé_sans_nom_89)"/>
            <path d="M123.3,65.8c-6.3-.9-10.4,1.6-15,5.5-.7.4-1.1,1-1.3,1.1-1.8,1-3.1.2-5.2.4s-10.6,3-12.6,4.4-3.5,3.9-3.4,6.6c-1.8.4-.9,3.7-.9,5.1-.2,0-.2-.1-.2-.2-1.1-2.9.3-4.8.7-7.6h-.9c.4-1,1.2-1.8,1.3-2.8,1.2-1.6,2.6-3,4-4.4,4.2-2.7,8.8-6.2,13.3-8.4,5.8-2.8,14.7-3.5,20.2.2Z" fill="#f23940"/>
            <path d="M138.3,80.8c0,1.1,1.1,2.3,1.3,3.4s-.2,2.2-.2,3.1.6.2.7.7-3.4,3-4,3.7c-2.9,3.4-4.2,7.4-8,10-1.2.8-3.7,1.1-4.1,2.6-3.1.6-9.6.5-12.1,2.2v-.4c5.4-2.6,11-7.7,15.4-11.7s2.7-2.3,4-3.5c4.4-4.2,6.9-8.7,1.8-13.8,2.2.2,3.9,2.1,5.3,3.6Z" fill="#cc0f2b"/>
            <path d="M82,87.9c-1.6,3.9-1.9,7.5-.9,11.6.5,1.8,2,4,1.8,5.8-4.7-5.6-7.1-7.8-7.5-15.9-.1-2.6,1.5-11.4,2.9-13.3,2.4-3.4,6.5-.6,9.5-3.4.5,0,2.9-.6,3.1-.3-4.5,5.1-11.2,7-8.8,15.5Z" fill="#cc0f2b"/>
            <path d="M110.5,95.4c.5.9,2.1,1.4,3.1,1.3.5.3,2.9,1.2,2.9,1.9-1.9.8-9.9,8.8-10.9,8.9s-5.4-3.3-5.4-3.6,1.2-1.7.7-2.3c2.5-2.1,6.1-1.7,8.6-3.6-2.8.8-6.8,1-9,3.3s.2.3.2.3c-1.6,1.8-2.1,2.5-2.2-.9s.7-4.5,2.5-6,2.1-.5,2.3-1.5c2.9.6,4.5,1.1,7.3,2.2Z" fill="#9d162b"/>
            <path d="M130.1,69.1c2.7,1.8,6.4,6.3,8.6,8.8,0,.3,1.4,2.6.6,2.6-2.5-2.2-5-3.8-8.2-4.9l-.6.2c0,.5.1.6,0,1.1-.8-1.3-3.2-.3-3.6-.4s-.9-1.9-1.2-2.3c-4.1-5-8.1-4.3-13.9-3-.2-.7.9-1.4,1.3-1.8.4.1.7-.3.9-.4,4.2-2.4,11.9-2.8,16.1,0Z" fill="#f23940"/>
            <path d="M92.2,98.4c.9,1.1,1.9,1.9,2.9,2.9,4,3.8,7.9,6.2,12.4,9.3,6.3,4.3,14.8,8.2,18.5,15-.4-1.2-2.1-2.3-3.3-2.6s-.7-.1-1.1-.2l-5.2-1.3c-2.3-1.6-.1-4.5-2-5.5s-.6-.2-.6.4c-.7-.7-1.6-.5-2.2-.7-2.9-1.8-4.3-1.6-7.1-2.6-.1-.7-1.8-1.5-2.4-1.8-2.9-2.1-10.8-7.6-11-11.5s.3-1.7,1.1-1.3Z" fill="#f34966"/>
            <path d="M83.6,106.8c-.3-.5-.3-1.1-.7-1.5.3-1.9-1.3-4-1.8-5.8-1-4-.8-7.7.9-11.6.4,1.3,1.5,2.8,1.8,3.9s-.2,2.9.4,4.6,3.5,4.1,3.5,4.4c.1.6-.8,4.8-1.3,5.3s-1.9.7-2.9.8Z" fill="#9d162b"/>
            <path d="M112.7,72c6.3-.5,10,.2,13.7,5.5.4,1.1.7,2.6,1.1,3.7-2.6-1.3-4.7-3.2-7.4-4.4s-9.6-3.7-11.8-3.7c1.1-.8,3.1-.9,4.4-1.1Z" fill="#f23940"/>
            <path d="M108.3,73.1c2.2,0,9.5,2.7,11.8,3.7s4.8,3.1,7.4,4.4c.4,1,2.3,3.2,1.3,4.2-2.6-2.2-5.7-3.4-8.6-5.1-2.1-1.3-3.9-3.3-6.3-4.2s-3.2-.4-4-.7-2.2-1.9-3.2-2.1c-.1-.7,1.4-.3,1.5-.3Z" fill="#b42a3b"/>
            <path d="M119.3,95.8s0,.3.2.2c-.4.4-2.2,2.3-2.8,2.2-.8-1-7-4.3-7.3-4.9-.7-1.4,8.1-3.8,8.8-4.6.4.2.7,3.3.8,3.9,0,1-.3,2.9.2,3.2Z" fill="#9d162b"/>
            <path d="M106.3,76.4c-1,.6-3,3-3.2,3.1-.5.2-.7-.2-.8-.2.7-1-1-.7-1.5-.3-.8.6-1,3.1-1.1,4.1-.3,0-2.8,1.2-2.9.6l1.7-1.9-4.1,2.4c-.3-1.4,0-2.8.4-4.4s.3-.4.4-.7l4.7-4c1.6.8,4.7-.5,6.3,1.3Z" fill="#cc0f2b"/>
            <path d="M130.8,68.2c-.5.2-.8.1-.7.9-4.2-2.8-11.9-2.4-16.1,0l-.2-.2c.9-.6,3-1.8,4-2,2.9-.6,6.2.3,9.2.2-.7-1.3-2.1-.7-3.1-.9s-.3-.4-.6-.4c-5.5-3.7-14.4-3-20.2-.2-4.5,2.1-9.1,5.7-13.3,8.4,12.5-12.3,25.7-15.7,41-5.7Z" fill="#fffeff"/>
            <path d="M93.3,80.1c-1.2.5-2.3,2.4-2.6,3.6-.8,2.9.2,6.2-1.1,8.5-.3-.7-.2-.9-.2-1.1-.4-1.4-.4-2.8-.7-4.1-.1-.5-1.2-1.9-1.3-2.4-.7-3.5,3.2-6.3,5.5-8.5,1.4-.7,2.9-1.8,4.6-1.4-2.1,1.4-3.5,2.9-4.2,5.4Z" fill="#cc0f2b"/>
            <path d="M94.8,91.8c0,.3-.2.5-.2.7l-2.8,3.3c-.2,0-2.2-3.1-2.3-3.5,1.3-2.3.3-5.6,1.1-8.5s1.4-3.2,2.6-3.6c-.2.6-.7,4.3-.7,5,.1,2.4,2.3,4.3,2.2,6.7Z" fill="#9d162b"/>
            <path d="M121.1,84.3c-.1-.2-.7-.5-.9-.7-.2-.3-.4-.4-.7-.7-2.7-2.6-4.5-3.8-8.4-4.2s-6.7,1.6-8.9,4.6c-.9,0,.7-2.7.8-2.9,1.5-.9,2.4-2.8,4.1-3.5,5.3-2.4,12.2,2.1,14,7.3Z" fill="#fc8493"/>
            <path d="M85.8,83.9c0,1.6.9,4.2,1.5,5.7.3,3.1,2.9,6.5,4.9,8.8-.8-.4-1.2.5-1.1,1.3l-2.9-2.2c-.2-.6-.2-1.2-.4-1.8-.6-1.5-1.7-3.4-2.4-5.3s.1-.5-.4-.4c0-.4,0-.7,0-1.1,0-1.4-.9-4.6.9-5.1Z" fill="#f5636e"/>
            <path d="M134.5,96.5s-.6.8.4.2c-3.5,4.3-4.1,7.6-10.3,8.8-4.6.9-8.7.4-13.3,2.2.2-.4-.2-.7-.2-.8,0,0,.5-.2.7-.3,2.5-1.7,9.1-1.6,12.1-2.2,5.8-1.1,6.6-3.6,9.9-7.9.2,0,.6,0,.7,0Z" fill="#481716"/>
            <path d="M128.8,85.4c.2.2.2.9.3.9l.4-.9.3.4c-.3.4-.6.7-.9,1.1-1.2,1.5-3.7,4.7-5.5,5.3-.4-1.9-.4-3.9-.9-5.7.4-.5.4-.5.7.1s.6,3.5,1,3.6c.7.2.9-.7,1.2-.9s1.8-1.1,1.8-1.7c-1.4-1.5-3.1-2.6-4.6-4.1s-.4.1-.7-.1c-.4-.4-1.5-2.5-1.8-3.2,2.9,1.7,6,2.9,8.6,5.1Z" fill="#481716"/>
            <path d="M122.6,122.9c1.2.3,2.9,1.5,3.3,2.6s.3.3.2.6c-.2.8-2.9,1.1-3.7,1.2s-1.6,0-2,0c-.4-2.1-4.7-2.4-4.9-4.6,2,.8,5,.5,7.1.2Z" fill="#9d162b"/>
            <path d="M138.7,90.7c-2.2,1.2-3.4,3.8-4.9,5.7-3.3,4.3-4.1,6.8-9.9,7.9.4-1.6,2.9-1.8,4.1-2.6,3.9-2.6,5.2-6.6,8-10s4-3.3,4-3.7-.7-.4-.7-.7c0-.9.4-2.1.2-3.1s-1.3-2.3-1.3-3.4c3.8,4.2,3.3,5.3.4,9.9Z" fill="#f0b4a3"/>
            <path d="M114.2,89.8c-1.9,1-4.3,1.4-6.1,2.9-.1-.5-1.1-.4-1.2-.8s2.7-2.8,2.9-3,.3-.2.4-.2c2.6-1.7,6-1.9,8.5-3.7.7,2.5-3.3,3.3-4.5,4.9Z" fill="#f5636e"/>
            <path d="M87.8,72.6c-2.9,2.9-7,0-9.5,3.4-1.4,2-3,10.8-2.9,13.3l-1.1.2c0-3.8,1.5-13.3,4.7-15.7s6.2-1,8.7-1.3Z" fill="#fffeff"/>
            <path d="M128.8,77.1c.8,0,2.9,1.9,3.1,2.4.4,1.6-.3,4.8-1.9,5.7l-3.2-8c.2-.2,1.6-.1,2-.1Z" fill="#cc0f2b"/>
            <path d="M134.1,85.2c-1.3,1.9-4.7,3.6-6.4,5.3-2,.6-6.4,5.8-8.3,7.5s-4,2.8-5.6,4.6c-1,.6-2.5,1.1-3.3,1.5,7-4.8,12.9-10.8,19.2-16.5s2.7-1.7,4-3.7.9-1.5.9-4c.9,2.1.9,3.4-.4,5.3Z" fill="#f9ebe5"/>
            <path d="M111.4,82.1c-.2,1.6-3.8,2.5-4.6,4-.2,0-.4.3-.7.2-1.1-1.5-1.1-3.3-.2-4.9,2.1-2.1,3.7-.9,5.5.7Z" fill="#f34966"/>
            <path d="M75.4,89.4c.4,8,2.8,10.3,7.5,15.9.4.4.4,1.1.7,1.5,0,0,0,.4-.1.4-.3,0-3.2-3.2-3.6-3.6-3.6-4.2-5.4-8.4-5.5-14l1.1-.2Z" fill="#ef9591"/>
            <path d="M94.2,85.4c1.5,3.4,8.8,4.7,11.7,7.2-.3.6-7.8-1.6-8.7-2.1-2.7-1.6-3.4-3.7-3.6-6.6.5.3.5,1.1.7,1.5Z" fill="#f5636e"/>
            <path d="M133.9,79l-.2,4.9c-1.3,2-2.4,2.3-4,3.7l-.7-.7c.3-.4.6-.7.9-1.1s1.3-1,1.5-1.4c.7-1.3,1.6-5.1,0-6.1-.3-.4-.5-.6-.9-.9,0-.1,0-.3,0-.4.1-.5,0-.6,0-1.1,1.3.4,2.6,1.9,3.3,3.1Z" fill="#b42a3b"/>
            <path d="M105.8,73.5c1.2.2,2.5,1.3,3.5,1.9-1,.3-2.2.5-3.1,1-1.6-1.9-4.7-.6-6.3-1.3l-4.7,4c1.6-3.4,6.9-6.2,10.6-5.5Z" fill="#cc0f2b"/>
            <path d="M93.5,83.9c.2,3,.9,5.1,3.6,6.6.9.5,8.4,2.6,8.7,2.1-2.9-2.5-10.2-3.7-11.7-7.2l15.2,8.5c-6.5-1.6-18-1.4-16-11.1.5.3,0,.6.1,1.1Z" fill="#f9ebe5"/>
            <path d="M108.9,106.8c-.3.1-3.6,1.8-3.5,1.2,1.7-1.2,3.2-2.8,5.1-3.9s2.3-1,3.3-1.5c3.1-1.8,6.4-3.3,9.5-5.3-4.1,3.5-9.5,7.1-14.3,9.5Z" fill="#9d162b"/>
            <path d="M103.2,93.2c-.2,1-1.6,1-2.3,1.5-1.8,1.5-2.6,3.6-2.5,6l-.2-2.3-.4.3c0-2.2-.3-4.4-.4-6.6,1.9.3,4,.7,6,1.1Z" fill="#933f45"/>
            <path d="M90.4,101.5c-.4,0,0,.2,0,.4.3,3.3-.9,7.4-.4,10.8-1-1-1-.2-1.3-2.3-.5-3.4.5-7.4.2-10.7.7.4,1,1.2,1.5,1.8Z" fill="#933f45"/>
            <path d="M119.5,83c-.4,0-1.2.4-1.5.7-1.1-.7-2.7-.7-3.5.2-.3-2.6-1.1-4-3.4-4.4s0-.5.1-.7c3.9.4,5.7,1.6,8.4,4.2Z" fill="#6a151e"/>
            <path d="M113.8,82.8c.3,1.9,0,2.1-.9,3.3-1.1.6-2.4.7-3.5,1.1-1.5.3-2.3.5-3.3-.9.3,0,.4-.1.7-.2.8-.3,1.1-.7,1.5-.9,1.9-.7,3.8-1,5.5-2.4Z" fill="#e22d4c"/>
            <path d="M91.1,99.8c.2,3.9,8.1,9.4,11,11.5-1.9-.9-3.8-1.6-5.5-2.9-2.2-1.7-4.2-4.6-6.2-6.8s-.9-1.3-1.5-1.8c0-.4-.2-.5-.2-.7,0-.5-.3-1-.4-1.5l2.9,2.2Z" fill="#fce0d6"/>
            <path d="M112.9,86.1c-.2.3-2.9,2.7-3.1,2.9s-.2,0-.2,0c-.1,0-2-.3-1.5,1.1-.3.3-1.2,1.5-1.4,1.5-.8.1-1.9-1-2.5-1.3l2.2-2.9c.4.4,1.4.7,1.9,1.1l-.6-.8c1,.2,1.7-.5,1.8-.6,1.1-.4,2.4-.5,3.5-1.1Z" fill="#cc0f2b"/>
            <path d="M126.4,77.5c-3.7-5.3-7.4-6-13.7-5.5,7.7-1.3,10.5-2.4,13.7,5.5Z" fill="#fffeff"/>
            <path d="M130.8,68.2c4.2,2.7,6.1,5,7.9,9.7-2.2-2.5-5.9-7-8.6-8.8-.1-.7.1-.7.7-.9Z" fill="#fdcfd0"/>
            <path d="M127.2,94.5c-4.4,4-10,9.1-15.4,11.7-.5.3-2.5,1.5-2.9.7,4.8-2.4,10.2-6,14.3-9.5,1.1-.7,2-1.6,3.1-2.4s.5-.5.9-.4Z" fill="#481716"/>
            <path d="M94.4,98.7c.8-.3.3-3.1-.7-2.9.6-1.2.6-2.2.9-3.3s.1-.4.2-.7-.2-.8.3-1.1c1.3-.2.8,8.8,1.2,9.6-.4.6-1.7-1.4-2-1.7Z" fill="#9d162b"/>
            <path d="M92.8,76.2c-2.3,2.2-6.2,5-5.5,8.5s1.2,1.9,1.3,2.4c.3,1.3.3,2.7.7,4.1-4.1-6.6-3.7-11.5,3.5-15Z" fill="#ef9591"/>
            <path d="M120.4,127.3c.4,0,1.9,0,2,0-3.8,2.4-9.3,1.3-12.6-1.5,3.5,1.3,6.9,1.7,10.6,1.5Z" fill="#800816"/>
            <path d="M117.8,66.9c-1,.2-3.1,1.4-4,2s-.4.5-.7.7c-.4.4-1.6,1-1.3,1.8-1.4.3-3.2,1.5-4.9,1.1.2-.1.6-.7,1.3-1.1,1.9-1.1,6.1-4.1,8-4.6s1.3-.1,1.4.2Z" fill="#cc0f2b"/>
            <path d="M122.4,85.9c-.6.4-.8-1-1.3-1.5-1.8-5.2-8.7-9.6-14-7.3s-2.6,2.6-4.1,3.5c5.4-9.3,16.9-3,19.4,5.3Z" fill="#f8dddf"/>
            <path d="M135.4,115.6l3.1-17.6c0,6.4-.6,11.7-3.1,17.6Z" fill="#e22d4c"/>
            <path d="M134.3,86.3c-.9,2.3-3.3,3.1-4.6,4.4-.5-.3-1.5-.3-2-.2,1.7-1.7,5.1-3.4,6.4-5.3.8.5.3.6.2,1.1Z" fill="#cc0f2b"/>
            <path d="M121.1,84.3c.5.6.8,2,1.3,1.5,0,.2.2.5.2.7.5,1.8.5,3.9.9,5.7-.3.1-.5.6-.8.4l-2.5-9c.2.2.7.5.9.7Z" fill="#a33a36"/>
            <path d="M125.5,89.4c-1.1-1.4-3.1-4.1-2.9-5.7,1.5,1.4,3.2,2.5,4.6,4.1,0,.5-1.4,1.4-1.8,1.7Z" fill="#9d162b"/>
            <path d="M105.4,86.1l-3.7,2.9c-.4-.5-.3-.6-.2-1.5.4.3.5,0,.7-.3.6-1.6,1-3.3,2.6-4.3,0,1.3,0,2,.7,3.3Z" fill="#fc8493"/>
            <path d="M114.2,89.8c1.2-1.5,5.2-2.4,4.5-4.9-2.5,1.8-5.9,2-8.5,3.7,1-.7,8.4-5,8.9-4.9s.4.4.6.6c.2,3.2-3.2,4.2-5.5,5.4Z" fill="#f9ebe5"/>
            <path d="M120.2,95.4c0,0-.5.5-.7.7-.3,0-.2-.2-.2-.2.3-1.9,0-3.9,0-5.8s-.7-1.5-.7-1.5c0-.2.6-.5.7-.6.7,1,2.2,5.4,2,6.3s-.9,1-1.1,1.2Z" fill="#6a151e"/>
            <path d="M99.7,83c0,.4-.2.9-.2,1.3-.5-.4-.9,0-1.3.2-1.4.6-1.1,1-1.5,1.3-1.6,1-2-.6-2.2-1.8l4.1-2.4-1.7,1.9c0,.7,2.6-.5,2.9-.6Z" fill="#800816"/>
            <path d="M106.3,87.4l-2.2,2.9c-.6-.3-2.1-.9-2.4-1.3l3.7-2.9c.1.2.7,1.2.9,1.3Z" fill="#f23940"/>
            <path d="M87.8,95.8c-.6.6.4,2.6.7,3.3-.6.3-2.5-2.5-2.6-3-.7-1.8-.4-3.7-.4-5.6.7,1.9,1.9,3.8,2.4,5.3Z" fill="#f9ebe5"/>
            <path d="M120.2,95.4c.2-.3,1.1-1.1,1.1-1.2.2-.9-1.3-5.3-2-6.3.1-.3.6-1.6,1.1-1.4.7,1.8.8,3.8,1.1,5.5s.9.9.7,1.8-1.6,1.7-2,1.7Z" fill="#9d162b"/>
            <path d="M95.9,101.5c3.4,1.6,8,7,11.5,9-4.5-3-8.3-5.4-12.4-9.3.2,0,.7.1.9.2Z" fill="#f0b4a3"/>
            <path d="M84.5,81c-.9,2-1.3,2.6-1.1,5s.7,3.4,1.3,2.8c0,.1,0,.3.2.2,0,.4,0,.7,0,1.1,0,.5.3,2-.4,2.1.3-1.8-1.2-3.6-1.5-5.3-.7-4,.6-5.6,2.9-8.5-.1,1-.9,1.8-1.3,2.6Z" fill="#f9ebe5"/>
            <path d="M95.9,101.5c-.2,0-.7-.2-.9-.2-1-.9-2-1.8-2.9-2.9-2-2.3-4.5-5.7-4.9-8.8,1.8,4.6,5.1,8.6,8.6,11.9Z" fill="#fdcfd0"/>
            <path d="M131.2,90.9c-1.2,1.2-2.7,2.4-4,3.5-.4,0-.6.2-.9.4.8-1.6,2.1-3,3.3-4.2s3.7-2.1,4.6-4.4c-.4,1.8-2,3.2-3.1,4.6Z" fill="#fce0d6"/>
            <path d="M97.2,92.1c.2,2.2.4,4.4.4,6.6s0,2,0,3c-1.3-2.6-.3-6.7-1.5-9.7.4-.4.8,0,1.1.1Z" fill="#ef9b89"/>
            <path d="M105.8,73.5c-3.7-.7-9,2.2-10.6,5.5s-.4.6-.4.7c.4-4.3,7.2-7.6,11-6.2Z" fill="#f9ebe5"/>
            <path d="M100.8,101.5h-.2s-.4,0-.2-.3c2.2-2.3,6.2-2.5,9-3.3-2.5,2-6.2,1.5-8.6,3.6Z" fill="#933f45"/>
            <path d="M118,83.7c-1,.8-2,2.3-3.7,1.2-.1-.4.3-.6.2-1,.9-.9,2.4-.9,3.5-.2Z" fill="#9d162b"/>
            <path d="M113.8,82.8c-1.7,1.4-3.7,1.7-5.5,2.4,2.1-1.1,2.7-.9,3.7-3.1.6-.2,1.2-.8.4-1.1v-.4c1.1.8,1.1,1.1,1.3,2.2Z" fill="#f4acb2"/>
            <path d="M99.4,84.3c0,.7,0,3.3,0,3.4-.5,1.1-1.7-.7-1.8-.8l.4-2.4c.4-.2.8-.7,1.3-.2Z" fill="#7f2d37"/>
            <path d="M101.5,83.2s.1.5.6.6c-1.1.6-1,4.9-1.7,5-1.7.2.8-5.5,1.1-5.5Z" fill="#a33a36"/>
            <path d="M102.3,79.3c0,.1-.7.2-.9.8-.6,1.7-.6,4.4-1.7,6.1.1-1.6.4-5.9,1.5-6.8s.9,0,1,0Z" fill="#e6ac7a"/>
            <path d="M111.4,82.1c-1.8-1.6-3.5-2.7-5.5-.7,1.5-2.5,5.9-2.2,5.5.7Z" fill="#fdcfd0"/>
            <path d="M138.7,90.7c-1.3,2-3,3.7-4.2,5.7,0,0-.5,0-.7,0,1.5-1.9,2.6-4.5,4.9-5.7Z" fill="#933f45"/>
            <path d="M94.4,98.7c-.2-.3-1.8-1.7-1.8-1.9,0-.6,1-.7,1.1-1,1-.3,1.5,2.6.7,2.9Z" fill="#b42a3b"/>
            <path d="M134.5,79.9c0,2.5.4,2-.9,4l.2-4.9c.2.3.5.6.7.9Z" fill="#f23940"/>
            <path d="M104.7,82.8c-1.6,1-2,2.7-2.6,4.3s-.3.7-.7.3c.3-2.2,2-4.1,3.2-5.7.6,0,0,.7.1,1.1Z" fill="#f9ebe5"/>
            <path d="M98.1,84.6l-.4,2.4c0,0-1.3.2-1.1-1.1.4-.3.1-.7,1.5-1.3Z" fill="#933f45"/>
            <path d="M130.5,77.5c.4.3.6.5.9.9s.4.7.4,1.1c-.2-.6-2.3-2.4-3.1-2.4.9,0,.8-.2,1.8.4Z" fill="#f0b4a3"/>
            <path d="M113.6,96.7c-1,0-2.6-.4-3.1-1.3,1.2.4,2,.7,3.1,1.3Z" fill="#cd5d62"/>
            <path d="M88.2,97.6c.1.5.4,1,.4,1.5h-.2c-.3-.7-1.3-2.7-.7-3.3.2.6.3,1.2.4,1.8Z" fill="#9d162b"/>
            <path d="M109.6,89c-.6,0-1.1.7-1.5,1.1-.5-1.4,1.4-1,1.5-1.1Z" fill="#fc8493"/>
            <path d="M112.5,81c.8.3.2.9-.4,1.1.2-.3-.3-1.3.4-1.1Z" fill="#cc727c"/>
            <path d="M109.7,79c.4,0,.6,0,.6.3s-.8-.1-.6-.3Z" fill="#bd5652"/>
            <path d="M126.2,123.4c.6-.3.6.4.2.4s-.4-.3-.2-.4Z" fill="#f23940"/>
            <path d="M96.6,108.4c1.5,2.5,5.3,3.6,7.9,4.6s4.1.9,7.1,2.6c-5.5-1.8-13.4-3.2-17.2-7.8-1.4-1.7-2.1-4.4-4-5.8,0-.2-.4-.4,0-.4,1.9,2.2,3.9,5.2,6.2,6.8Z" fill="#481716"/>
            <path d="M113.8,116.3c2,1.8-1.5,3.3,1.4,5.3s4.3.7,6.3,1.1.7.1,1.1.2c-2.1.3-5.1.6-7.1-.2-3.7-1.6-1.4-4.5-2-6.1s-1.5-.7-2-1c.6.2,1.5,0,2.2.7Z" fill="#481716"/>
            <path d="M123.3,65.8c.3,0,.4.4.6.4,1,.2,2.3-.4,3.1.9-2.9,0-6.3-.9-9.2-.2-.1-.3-1.2-.3-1.4-.2-1.9.5-6.1,3.5-8,4.6,4.6-3.9,8.7-6.4,15-5.5Z" fill="#6a151e"/>
            <path d="M84.7,88.7c-.7.6-1.3-2.5-1.3-2.8-.2-2.3.2-3,1.1-5h.9c-.3,3-1.7,4.8-.7,7.7Z" fill="#f5636e"/>
            <path d="M114,69.1c-.2.1-.5.5-.9.4.2-.2.3-.4.7-.7l.2.2Z" fill="#ef9b89"/>
            <path d="M121.5,122.7c-2-.4-4.5.1-6.3-1.1-3-2,.5-3.5-1.4-5.3,0-.6,0-.8.6-.4,1.9,1-.4,3.9,2,5.5l5.2,1.3Z" fill="#f4acb2"/>
            <path d="M102.1,111.2c.6.3,2.3,1,2.4,1.8-2.7-1.1-6.4-2.1-7.9-4.6,1.7,1.3,3.7,1.9,5.5,2.9Z" fill="#b42a3b"/>
            <path d="M129.7,90.7c-1.2,1.2-2.5,2.6-3.3,4.2-1.1.8-1.9,1.7-3.1,2.4-3.1,2-6.4,3.5-9.5,5.3,1.6-1.8,3.8-3,5.6-4.6s6.2-6.9,8.3-7.5,1.5,0,2,.2Z" fill="#f5636e"/>
          </g>
        </g>
      </g>
      <g>
        <path d="M154.1,156.3c.3,0,.5,1.9.5,2-.3,1.3-10.8,8.5-12.6,9.5-5.5,3.1-19.3,8.3-25.5,7.9s-2.6-2.5-4.4-2.7c12.6-.3,24.5-4.5,34.6-11.8s5.1-4.6,5.5-4.7,1.4.3,1.9-.2Z" fill="#fff"/>
        <path d="M115.7,50.6c1.3-.4,10.1,1.4,11.9,1.9,6.2,1.6,13.4,5.1,18.7,8.7s8.1,6.2,8.2,6.9c.4,1.7-.8,2.4-2.4,1.8s-3.4-3.3-4.2-3.8c-10.5-7.8-22.4-12.7-35.7-12.6.5-.6,1.6-1,2.3-1.5s.8-1.2,1.1-1.3Z" fill="#fff"/>
        <path d="M68.7,156.3c0,0,2,.2,2.1.2.5.1,6.2,5.3,7.6,6.2,9.5,6.4,20.9,9.9,32.4,10.3-1.8.3-2.9,2.6-4.2,2.7-6.1.5-20-4.8-25.5-7.9-1.9-1.1-12.1-8-12.6-9.5s0-1.9.3-2Z" fill="#fff"/>
        <path d="M105.7,50.6c2.4,0,1.5.5,3,1.7s1.6.6,1.9,1.1c-12.7-.1-25,4.7-35.1,12.1-.9.7-4.7,4.4-5.1,4.5s-1.9.1-2,0c-.2-2.4,1-3.1,2.7-4.6,7.8-7.1,23.9-14.6,34.5-14.7Z" fill="#fff"/>
        <path d="M156.7,73.5c1.6.6,2.6,0,3.9,1,4.5,4.1,10.7,18.5,12.1,24.5s1.7,8.7,1.5,9.6-3,2.2-2.7,3.5c-.5-11.8-4.2-23.1-10.9-32.7-.5-.8-4.1-4.8-4.2-5.1s.2-.8.3-.8Z" fill="#fff"/>
        <path d="M171.4,114.4c-.2,1.2,2.7,3.1,2.7,3.3.1.5-.9,6.9-1.1,7.9-1,4.9-3.4,11.2-5.7,15.7s-6.6,10.7-7.5,11-1.2,0-1.7,0c-.8.1-2.1,1.3-1.8-.5s5.2-6.6,6-7.9c5.5-8.9,8.4-19.2,9-29.5Z" fill="#fff"/>
        <path d="M66.1,73.3c1.4.5-2.2,3.9-2.5,4.4-7.4,10.4-11.5,21.6-12.2,34.4-.1-2-2.4-2.4-2.5-4.1-.4-6.1,4.5-19.2,7.6-24.7s6-9.3,6.5-9.5,2.4.2,3.2-.6Z" fill="#fff"/>
        <path d="M51.6,113.8c.3,10.2,3.2,20.6,8.4,29.4s6.3,8.2,6.4,8.7c.5,1.8-1.1.6-1.6.5s-1.3.1-1.7,0c-.8-.3-6-8.2-6.7-9.5-2.9-5.3-8-18.7-7.6-24.5s2.7-2.3,2.7-4.4Z" fill="#fff"/>
        <g>
          <path d="M110.3,53.6c.1,0,.6.1.7.3l-.3,4.6c-13.7,0-27,6-36.8,15.3.6-1.6-2.5-3.5-2.5-3.7-.4-1.9,14.6-10.6,16.9-11.6,5.1-2.2,16.7-5.4,22.1-4.9Z" fill="#fff"/>
          <g>
            <path d="M77.6,67.2c.1,0,.4,0,.5,0-.9,1.3-1.1,0-.5,0Z" fill="#07496a"/>
            <path d="M86.5,62.1c.9-.2.2.7-.2.6s0-.5.2-.6Z" fill="#0d3d63"/>
            <path d="M88.4,61.2c.1,0,.6,0,.7,0-.6.8-1.3,0-.7,0Z" fill="#0d3d63"/>
            <path d="M84.4,63.3c.9-.1.1.6-.2.6s-.2-.5.2-.6Z" fill="#042e45"/>
            <path d="M79.5,66.1c.9.1-.5,1.2-.5.5s.4-.5.5-.5Z" fill="#07496a"/>
            <path d="M81.4,65.1c.3.6-.7.9-.7.5s.5-.3.7-.5Z" fill="#042e45"/>
            <path d="M97.2,58c0,0,.8-.1.7.3-.3.3-1.1,0-.7-.3Z" fill="#0d3d63"/>
            <path d="M92.9,59.3c.9,0-.5,1-.5.3s.4-.3.5-.3Z" fill="#0b2846"/>
            <path d="M95,58.7c0,0,.8-.1.7.3-.3.3-1.1,0-.7-.3Z" fill="#07496a"/>
            <path d="M101.8,57c.2,0,.5,0,.5.3-.6.4-1-.2-.5-.3Z" fill="#07496a"/>
            <path d="M106.3,56.5c.1,0,.8,0,.7.3s-.9-.1-.7-.3Z" fill="#0b2846"/>
            <path d="M75.5,68.9c.7-.2.4.3,0,.6-.3-.1-.3-.5,0-.6Z" fill="#0b2846"/>
            <path d="M109.1,56.1c.3.2,0,.7-.4.6-.3-.2.3-.6.4-.6Z" fill="#18223c"/>
            <path d="M73.5,70.8c.4,0,.2.7-.2.6s0-.6.2-.6Z" fill="#042e45"/>
            <path d="M82.5,64.2c.4,0,.2.7-.2.6s0-.6.2-.6Z" fill="#0b2846"/>
            <path d="M90.4,60.2c.1-.1.6,0,.5.3s-.9,0-.5-.3Z" fill="#07496a"/>
            <path d="M104,56.7c.1-.1.6,0,.5.3s-.9,0-.5-.3Z" fill="#0d3d63"/>
            <path d="M99.5,57.4c.7,0,.5.7-.2.4s.1-.4.2-.4Z" fill="#042e45"/>
          </g>
        </g>
        <g>
          <path d="M148.8,152.7l.5.3c-.1,1.8,1,2.7,2.5,3.4-10.6,9.9-25,16.1-39.6,16l.3-4.6c13.6-.4,26.7-5.7,36.4-15.1Z" fill="#fff"/>
          <g>
            <path d="M142.9,159.9c.6,0,0,.8-.4.8-.3-.2.3-.8.4-.8Z" fill="#07496a"/>
            <path d="M146.7,157.1c.4,0,.1.8-.4.8-.3-.2.3-.8.4-.8Z" fill="#0b2846"/>
            <path d="M148.6,155.6c.3.4,0,.8-.6.8l.6-.8Z" fill="#042e45"/>
            <path d="M127.8,167.1c.8,0,.5.4,0,.6-.3-.1-.2-.5,0-.6Z" fill="#07496a"/>
            <path d="M130.3,166.3c.9,0-.5,1-.5.3s.4-.3.5-.3Z" fill="#0b2846"/>
            <path d="M136.5,163.7c.8-.3.1.7-.2.6s0-.5.2-.6Z" fill="#0d3d63"/>
            <path d="M140.8,161.2c.6,0,0,.7-.4.6-.2-.1.3-.6.4-.6Z" fill="#042e45"/>
            <path d="M144.6,158.8c.8-.3.1.7-.2.6s0-.5.2-.6Z" fill="#0d3d63"/>
            <path d="M116.1,169.5c0,0,.6,0,.7,0-.3.6-1.1.2-.7,0Z" fill="#0b2846"/>
            <path d="M118.8,169.2c.9,0-.6.9-.5.3s.4-.3.5-.3Z" fill="#0b2846"/>
            <path d="M121,168.8c.6,0,.1.7-.2.6s0-.6.2-.6Z" fill="#042e45"/>
            <path d="M125.4,167.8c.2,0,.5,0,.5.3-.6.4-1-.2-.5-.3Z" fill="#0d3d63"/>
            <path d="M132.3,165.6c.6,0,.1.7-.2.6s0-.6.2-.6Z" fill="#0d3d63"/>
            <path d="M138.8,162.5c.9,0-.6.9-.5.3s.4-.3.5-.3Z" fill="#042e45"/>
            <path d="M134.6,164.6c.8,0-.6.9-.5.3s.4-.3.5-.3Z" fill="#0b2846"/>
            <path d="M123.1,168.4c.1-.1.6,0,.5.3s-.9,0-.5-.3Z" fill="#07496a"/>
            <path d="M113.8,169.7c.1-.1.6,0,.5.3s-.9,0-.5-.3Z" fill="#042e45"/>
          </g>
        </g>
        <g>
          <path d="M73.6,152.5c10.3,9.2,23.1,15.2,37.2,15.3v4.4c-14.5.5-29-6-39.5-15.9.5,0,1.7-1.4,1.8-1.4.6,0,.6,1.3,1.4.8-1.7-1.2-.8-1.7-.8-3.3Z" fill="#fff"/>
          <g>
            <path d="M80.1,159.9c.3.5,1.2.5.6.9-.4-.3-.9-.4-.6-.9Z" fill="#0d3d63"/>
            <path d="M82.1,161.4l.8.7c-.1.3-1.3-.4-.8-.7Z" fill="#07496a"/>
            <path d="M90.6,165.6s.6.3.7.3c.5.8-1.4.1-.7-.3Z" fill="#0d3d63"/>
            <path d="M77.8,158.4c.4.3.9.4.6.9l-.6-.9Z" fill="#07496a"/>
            <path d="M75.7,156.7c.3.4.9.4.6.9-.3-.4-.9-.4-.6-.9Z" fill="#0d3d63"/>
            <path d="M92.7,166.5c.7-.1,1.1.6.4.6s-.5-.4-.4-.6Z" fill="#0d3d63"/>
            <path d="M101.8,168.8c0,0,.7.2.7.3,0,.6-1.3.1-.7-.3Z" fill="#0d3d63"/>
            <path d="M99.7,168.4s.7.3.4.6c-.6.2-.8-.5-.4-.6Z" fill="#0d3d63"/>
            <path d="M97.4,167.8l.7.5c-.2.4-1.1-.3-.7-.5Z" fill="#0d3d63"/>
            <path d="M95,167.3c.2,0,.8.2.8.3,0,.3-.9.2-.8-.3Z" fill="#0d3d63"/>
            <path d="M86.5,163.9c.2-.1.8.2.7.5s-.8-.2-.7-.5Z" fill="#0b2846"/>
            <path d="M84.6,162.7s.6.4.7.5c-.1.4-1.4-.4-.7-.5Z" fill="#0d3d63"/>
            <path d="M108.8,169.7c.2-.1.5,0,.7.3-.3.3-1.1,0-.7-.3Z" fill="#31445d"/>
            <path d="M106.1,169.5c.1,0,.8,0,.7.3s-.9-.1-.7-.3Z" fill="#0b2846"/>
            <path d="M104,169.2s.7.3.4.6c-.5.2-.7-.4-.4-.6Z" fill="#0b2846"/>
            <path d="M88.4,164.8c.3-.1.7.4.4.6s-.7-.4-.4-.6Z" fill="#0b2846"/>
          </g>
        </g>
        <g>
          <path d="M112.3,53.6c14.6.5,28.8,6.2,39.4,16.3-1.6.9-2.5,2-2.5,3.9-9.8-9.4-23.1-15.4-36.8-15.3v-4.9Z" fill="#fff"/>
          <g>
            <path d="M145.9,68l.9,1.1c-.4-.2-1.3-.5-.9-1.1Z" fill="#0d3d63"/>
            <path d="M137.8,62.9c.3-.2.7.3.8.5-.4.4-1.3-.2-.8-.5Z" fill="#0d3d63"/>
            <path d="M148.2,69.9l.6.9c-.4,0-.9-.7-.6-.9Z" fill="#07496a"/>
            <path d="M143.9,66.7l.6.9c-.4-.3-.9-.4-.6-.9Z" fill="#0d3d63"/>
            <path d="M131.6,60c.2-.1.8.2.7.5s-1.1-.2-.7-.5Z" fill="#0d3d63"/>
            <path d="M129.3,59.1l.8.5c-.4.4-1.3-.3-.8-.5Z" fill="#0d3d63"/>
            <path d="M140.1,64s.7.4.7.5c0,.5-1.3,0-.7-.5Z" fill="#0d3d63"/>
            <path d="M142,65.3s.7.5.4.8c-.4-.1-.9-.8-.4-.8Z" fill="#0d3d63"/>
            <path d="M135.9,61.7s.7.4.7.5c-.3.4-1.2-.2-.7-.5Z" fill="#0d3d63"/>
            <path d="M125.2,57.8s.7.3.4.6c-.6.2-.8-.5-.4-.6Z" fill="#0b2846"/>
            <path d="M133.9,60.8s.7.3.4.6c-.5,0-.9-.5-.4-.6Z" fill="#0d3d63"/>
            <path d="M118.4,56.7c.1,0,.8,0,.7.3s-.9-.1-.7-.3Z" fill="#0d3d63"/>
            <path d="M122.9,57.4c.2-.1.5,0,.7.3-.3.3-1.1,0-.7-.3Z" fill="#265875"/>
            <path d="M115.9,56.5c.2,0,1-.1.8.3,0,.1-1,0-.8-.3Z" fill="#0b2846"/>
            <path d="M120.6,57c.1,0,.8,0,.7.3s-.9-.1-.7-.3Z" fill="#07496a"/>
            <path d="M113.8,56.1c.1,0,.7.5.2.6s-.5-.5-.2-.6Z" fill="#0b151e"/>
            <path d="M127.2,58.5c.1-.1.6,0,.5.3s-.9,0-.5-.3Z" fill="#0d3d63"/>
          </g>
        </g>
        <g>
          <path d="M66.5,75c.2,0,3,2.8,4.4,2-8.8,9.7-14,22.5-14.2,35.7h-4.6c-.2-10.3,3.2-21.2,8.6-30,.6-.9,5.2-7.6,5.8-7.6Z" fill="#fff"/>
          <g>
            <path d="M67.2,77.4c1-.4,0,1-.2.9-.3-.1,0-.9.2-.9Z" fill="#07496a"/>
            <path d="M61.7,85.5c.6,0,0,.8-.2.9-.4-.1,0-.9.2-.9Z" fill="#042e45"/>
            <polygon points="65.7 79.3 66 79.8 65.3 80.2 65.7 79.3" fill="#042e45"/>
            <path d="M64.2,81.6c.6-.1,0,1-.4.8s.2-.7.4-.8Z" fill="#07496a"/>
            <path d="M57.2,96.3c.2.1.2,1.2-.2.9s0-.8.2-.9Z" fill="#0d3d63"/>
            <path d="M60.6,87.6c.3,0,.2.8-.2.9-.2-.1,0-.9.2-.9Z" fill="#07496a"/>
            <path d="M55.7,100.8c.5,0,.3.8,0,.9-.2-.2-.2-.7,0-.9Z" fill="#07496a"/>
            <path d="M55.5,103.1c.3.2,0,1-.2.9-.3-.2,0-1,.2-.9Z" fill="#07496a"/>
            <path d="M59.5,89.9c.4-.2.4.8-.2.8,0,0,.1-.7.2-.8Z" fill="#0d3d63"/>
            <path d="M55.1,105.5c.3-.2.4.7.2.8-.3.2-.4-.6-.2-.8Z" fill="#0b2846"/>
            <path d="M54.8,107.8c.3-.2.4.7.2.8-.3.2-.4-.6-.2-.8Z" fill="#0d3d63"/>
            <path d="M54.8,110.1c.3-.2.4.7.2.8-.3.2-.4-.6-.2-.8Z" fill="#07496a"/>
            <path d="M58,94.2c.3.2,0,1-.2.9-.3-.2,0-1,.2-.9Z" fill="#0d3d63"/>
            <path d="M62.9,83.6c.3,0,.2.9-.2.8s.2-.7.2-.8Z" fill="#07496a"/>
            <path d="M56.5,98.7c.2.1.2.9-.2.8s0-.8.2-.8Z" fill="#07496a"/>
            <path d="M58.7,92.1c.2.1.2.9-.2.8s0-.8.2-.8Z" fill="#07496a"/>
          </g>
        </g>
        <g>
          <path d="M52.3,113.7h4.4c0,13.5,5.6,26,14.3,36.1-1.6-1-4.1,1.7-4.3,1.7-.8,0-6.6-8.8-7.3-10.1-4.5-8.1-7.7-18.3-7.1-27.7Z" fill="#fff"/>
          <g>
            <path d="M64.2,143.9l.6.9c-.4,0-.9-.7-.6-.9Z" fill="#0d3d63"/>
            <path d="M59.3,135.6l.4,1.1c-.4-.3-.7-.6-.4-1.1Z" fill="#0d3d63"/>
            <path d="M58.4,133.5c.3-.2.9.8.4.9l-.4-.9Z" fill="#042e45"/>
            <path d="M62.7,141.6c.2,0,.6.8.2.9-.2-.2-.7-1-.2-.9Z" fill="#0b2846"/>
            <path d="M61.6,139.5c.5,0,.5.8.2.8s-.7-.7-.2-.8Z" fill="#042e45"/>
            <path d="M55.5,122.1c.3-.2.4.7.2.8-.3.2-.4-.6-.2-.8Z" fill="#0d3d63"/>
            <path d="M67.2,148c.3-.1.6.7.4.8-.3,0-.6-.7-.4-.8Z" fill="#07496a"/>
            <path d="M65.5,146.1c.6-.1.6.3.4.8l-.4-.8Z" fill="#0b2846"/>
            <path d="M55,117.4c.2.4.5.6,0,.9-.1-.2-.2-.9,0-.9Z" fill="#0b2846"/>
            <path d="M57.8,131.2c.3-.2.4.6.2.8s-.5-.6-.2-.8Z" fill="#0d3d63"/>
            <path d="M55.1,119.9c0,0,.5.6.2.8s-.4-.6-.2-.8Z" fill="#0d3d63"/>
            <path d="M56.5,126.5c.2,0,.3.8,0,.8s-.3-.7,0-.8Z" fill="#042e45"/>
            <path d="M54.8,115.4c.1,0,.5.5.2.6-.4.2-.5-.6-.2-.6Z" fill="#182834"/>
            <path d="M60.4,137.8c.4-.2.5.6.2.6s-.5-.5-.2-.6Z" fill="#0d3d63"/>
            <path d="M56.1,124.2c.2.4.4.5,0,.8-.2-.2-.2-.6,0-.8Z" fill="#0b2846"/>
            <path d="M57,128.6c.2.4.4.5,0,.8-.2-.2-.2-.6,0-.8Z" fill="#07496a"/>
          </g>
        </g>
        <g>
          <path d="M166.3,113.7l4.6.3c-.3,11.6-4.1,23.4-10.9,32.8s-3.6,4.6-3.9,4.6-1.1-1.2-1.5-1.3-2.7-.3-2.7-.5c8.9-9.9,13.9-22.6,14.4-36Z" fill="#fff"/>
          <g>
            <path d="M160.8,140.3c.6-.3,0,1.3-.4,1.1s.4-.9.4-1.1Z" fill="#265875"/>
            <path d="M162.4,137.8c.3.1-.1,1-.4,1.1-.3-.1.1-1,.4-1.1Z" fill="#042e45"/>
            <path d="M155.6,148c.7,0,0,1-.2.9-.3-.1.1-.9.2-.9Z" fill="#042e45"/>
            <path d="M157.1,146.1c.7.4-.4,1.3-.5.7s.5-.4.5-.7Z" fill="#0d3d63"/>
            <path d="M166.5,126.7c.3-.2.4.7.2.8-.3.2-.4-.6-.2-.8Z" fill="#07496a"/>
            <path d="M167.8,119.7c.1.2.2.9,0,.9-.4-.3-.4-.6,0-.9Z" fill="#0b2846"/>
            <path d="M158.4,144.4c.7,0-.5,1.2-.5.5s.4-.5.5-.5Z" fill="#042e45"/>
            <path d="M168,117.4c.4.3.4.6,0,.9-.2-.2-.2-.7,0-.9Z" fill="#042e45"/>
            <path d="M165.9,128.8c.1,0,.3,1-.2.9-.2,0,.2-.8.2-.9Z" fill="#042e45"/>
            <path d="M159.7,142.3c.3.1,0,.9-.4.8-.1-.2.3-.8.4-.8Z" fill="#0b2846"/>
            <path d="M163.3,135.6c.5.3.3.7-.2.8l.2-.8Z" fill="#042e45"/>
            <path d="M168.2,115.2c0,0,.5.6.2.8s-.4-.6-.2-.8Z" fill="#182834"/>
            <path d="M164.2,133.5c.3,0,.2.9-.2.8s.2-.7.2-.8Z" fill="#0b2846"/>
            <path d="M165.2,131.2c.3.1,0,1-.2.9-.3,0,0-.8.2-.9Z" fill="#0d3d63"/>
            <path d="M167.5,122.1c.3-.2.4.6,0,.8-.1-.1-.2-.7,0-.8Z" fill="#0d3d63"/>
            <path d="M167.1,124.2c.5.3.2.5,0,.9-.2,0-.1-.8,0-.9Z" fill="#042e45"/>
          </g>
        </g>
        <g>
          <path d="M156.3,74.8c9,10.4,14.5,23.9,14.5,37.8h-4.6c-.2-13.1-5.4-25.8-14.2-35.6,1.7-.2,3.3-.6,4.2-2.2Z" fill="#fff"/>
          <g>
            <path d="M157.1,79.5c.2,0,.8.8.6.9-.4.1-.8-.8-.6-.9Z" fill="#07496a"/>
            <path d="M158.8,81.8s.8.7.4.9c-.3.2-.7-.8-.4-.9Z" fill="#07496a"/>
            <path d="M166.3,98l.2.9c-.3.1-.7-.8-.2-.9Z" fill="#07496a"/>
            <path d="M161.6,86.3s.4.7.2.8c-.7.3-.5-.8-.2-.8Z" fill="#0b2846"/>
            <path d="M165.4,95.9c.4-.2.4.8.2.9-.3-.1-.4-.8-.2-.9Z" fill="#184054"/>
            <path d="M155.6,77.4l.4.8c-.4,0-.6-.4-.4-.8Z" fill="#0d3d63"/>
            <path d="M167.6,105c.3-.2.4.7.2.8-.3.2-.4-.6-.2-.8Z" fill="#07496a"/>
            <path d="M164.6,93.3c0,0,.5.6.2.8s-.4-.6-.2-.8Z" fill="#07496a"/>
            <path d="M160.3,83.8c.4-.2.6.6.2.6s-.4-.5-.2-.6Z" fill="#34628c"/>
            <path d="M162.4,88.4c.3-.1.7.4.4.6s-.7-.4-.4-.6Z" fill="#042e45"/>
            <path d="M166.9,100.4c0,0,.5.6.2.8s-.4-.6-.2-.8Z" fill="#042e45"/>
            <path d="M168,107.2c0,0,.3.7.2.8-.5,0-.4-.9-.2-.8Z" fill="#0d3d63"/>
            <path d="M167.5,102.7c.1.1.2.7,0,.8s-.5-.5,0-.8Z" fill="#0b2846"/>
            <path d="M168.2,109.7c.1.1.2.7,0,.8s-.5-.5,0-.8Z" fill="#042e45"/>
            <polygon points="163.3 89.9 163.5 90.1 163.5 90.2 163.3 90.2 163.3 89.9" fill="#07496a"/>
            <polygon points="163.5 90.8 163.8 90.9 163.7 91.2 163.6 91.1 163.5 90.8" fill="#265875"/>
          </g>
        </g>
        <g>
          <path d="M111.4,40.8c1.8,2.6,5.6,7.4,2.5,10.2-2,1.8-5.5.7-5.9-2s2.2-5.9,3.5-8.2Z" fill="#fff"/>
          <path d="M111.4,45.1c.9,1.3,3,2.9,2,4.6s-3.8,1.1-4.2-.6,1.5-2.9,2.2-4.1Z" fill="#13a0d2"/>
        </g>
        <g>
          <path d="M110.6,174.4c1.2-.2,2.7.3,3.5,1.2,2.6,3-1,7.1-2.5,9.7-2.5-2.2-6.2-10-.9-10.9Z" fill="#fff"/>
          <path d="M110.8,175.6c1.7-.4,3.3,1.3,2.7,2.9s-1.8,1.9-2,2.7c-1.6-1.1-3.8-5-.8-5.7Z" fill="#13a0d2"/>
        </g>
        <g>
          <path d="M175.6,109.7c2.4-.4,5.4,2,7.1,3.7-2.4,1.8-5.5,4.6-8.6,2.7s-1.5-6,1.5-6.4Z" fill="#fff"/>
          <path d="M175,111.2c1.7-.4,3.4,1,4.4,2.2-1.4.9-2.6,2.4-4.4,1.8s-1.6-3.6,0-4Z" fill="#13a0d2"/>
        </g>
        <g>
          <path d="M45.9,109.7c6.3-.7,5.6,8.8-1.1,6.8s-4.7-3-4.6-3.3c1.6-1,3.9-3.3,5.8-3.5Z" fill="#fff"/>
          <path d="M46.3,111.2c4.1-.7,3.7,5-.2,4-.9-.2-1.9-1.5-2.9-1.8,0-.2,2.8-2.1,3.1-2.2Z" fill="#13a0d2"/>
        </g>
        <g>
          <g>
            <path d="M164.2,64.8c.4.1-.6,4-.8,4.4-3.4,7.9-11,.4-6.3-2.9,1.9-1.4,5-.7,7.2-1.5Z" fill="#fff"/>
            <path d="M160.3,67.2c.3,0,1.3,0,1.4,0-.3.9-.4,2.6-.9,3.4-2.4,3.2-7.4-3.5-.5-3.5Z" fill="#13a0d2"/>
          </g>
          <g>
            <path d="M152.2,70.2c3.8-.6,5.6,4.8,2.1,6-4.9,1.7-6.2-5.3-2.1-6Z" fill="#fff"/>
            <path d="M152.2,71c3.4-.7,4.1,4.1,1.5,4.7s-4.3-4.2-1.5-4.7Z" fill="#42afd7"/>
          </g>
        </g>
        <g>
          <g>
            <path d="M58.7,64.8c2.2.7,5.6.2,7.4,1.7,4.3,3.7-3.6,10.6-6.7,2.4-.2-.4-1.1-3.9-.7-4.1Z" fill="#fff"/>
            <path d="M61.2,67.2c2.1,0,6.6.1,4.6,3.3s-5.1-.8-4.6-3.3Z" fill="#13a0d2"/>
          </g>
          <g>
            <path d="M69.1,70.4c5.5-1,5.4,7.1,0,6s-2.9-5.5,0-6Z" fill="#fff"/>
            <path d="M69.3,71.2c4.5-.9,4,5.5-.2,4.5s-2-4.1.2-4.5Z" fill="#42afd7"/>
          </g>
        </g>
        <g>
          <g>
            <path d="M63.4,153.5c2.5-.1,4.5,2.9,3.7,5.2-.9,2.4-6.3,2.5-8.4,2.9.1-2.6,1.4-8,4.7-8.1Z" fill="#fff"/>
            <path d="M63.3,154.8c1.7-.3,3.3,1.2,2.9,2.9s-3.6,1.1-4.8,1.4c0-1.3.2-4,1.9-4.3Z" fill="#13a0d2"/>
          </g>
          <g>
            <path d="M69.1,150.1c4.9-.9,5.1,5.3,1.9,6s-5.9-5.3-1.9-6Z" fill="#fff"/>
            <path d="M69.5,150.7c3.6-.5,3.9,4.9.6,4.9s-3.5-4.5-.6-4.9Z" fill="#13a0d2"/>
          </g>
        </g>
        <g>
          <g>
            <path d="M158.2,153.7c4.3-.9,5.9,4.7,6,7.9-3.2-.6-10-.4-8.4-5.6s1.7-2.2,2.4-2.4Z" fill="#fff"/>
            <path d="M158,154.8c3.3-1.1,3.9,4.2,3.4,4.3-1.7-.4-5,.4-4.6-2.4s.9-1.9,1.2-2Z" fill="#13a0d2"/>
          </g>
          <g>
            <path d="M152,150.1c5.9-1.1,4.9,7.6-.4,5.9s-2.4-5.3.4-5.9Z" fill="#fff"/>
            <path d="M152,150.8c4.7-1.2,4,5.7,0,4.5s-1.9-4,0-4.5Z" fill="#13a0d2"/>
          </g>
        </g>
      </g>
      <path d="M120.7,36c-.6,1.4-.6,3.4-1.7,4.8.1.5,5.1,1.2,6.2,1.4,1.9.3,4.9.5,6.7,1.1l1.9-6.9c-1.6-.8-11.5-2.9-12.3-2.1s-.7,1.5-.8,1.8Z" fill="#fdfdfd"/>
      <path d="M103.5,190.6c.6-1.4.6-3.4,1.7-4.8-.1-.5-5.1-1.2-6.2-1.4-1.9-.3-4.9-.5-6.7-1.1l-1.9,6.9c1.6.8,11.5,2.9,12.3,2.1s.7-1.5.8-1.8Z" fill="#fdfdfd"/>
      <path d="M120.1,190.6c-.6-1.4-.6-3.4-1.7-4.8.1-.5,5.1-1.2,6.2-1.4,1.9-.3,4.9-.5,6.7-1.1l1.9,6.9c-1.6.8-11.5,2.9-12.3,2.1s-.7-1.5-.8-1.8Z" fill="#fdfdfd"/>
      <g>
        <path d="M108.7,191.9c-3.5,5.4-7.4,10.6-11.2,15.8,2.6,3.8,5.4,7.5,8.3,11.1s4.7,6.7,6.8,7.2l13.5-17.5v-1.2s-14.2-19.9-14.2-19.9c-.8,1.6-2.2,3-3.2,4.4Z" fill="#fdfcfc"/>
        <g>
          <path d="M102.3,215.2c.9,1.1,1.9,2.2,2.8,3.4.3,0,.5.7.6.2-2.9-3.6-5.7-7.3-8.3-11.1,3.8-5.2,7.7-10.3,11.2-15.8l-.2-.2c-3.6,5.5-8.2,10.5-11.9,16,1.9,2.5,3.8,5.1,5.7,7.5Z" fill="#ba9caa"/>
          <path d="M111.8,187.4l14.2,19.9.4-.2-14.4-20.5c-.2.4-.2.7-.2.8Z" fill="#ba9caa"/>
          <path d="M126,207.3v1.2s-13.5,17.5-13.5,17.5c0,0,0,.2.2.2.1-.5,1.3-1.2,1.5-1.5s.3-.4.4-.6c.9-1.2,1.8-2.4,2.8-3.6s1.2-1.4,1.7-2.1c.8-1.1,1.7-2.1,2.5-3.2,1.8-2.4,3.5-4.9,5.5-7.1l-.6-1-.4.2Z" fill="#ba9caa"/>
          <path d="M107.4,216c1.4,2,3,4,4.6,5.9.4,0,.6-.5.7-.6-.9,0-.4-1.1-.4-1.5-.1-1.7-.5-3.9-.2-5.5-.8-1.4-3.9-5.7-4-7.1s1.4-5.3,1.7-6.6.1-2.3.2-2.6l-7.4,9.8c-.1.9,3.6,5.6,4.2,6.6s.6,1.5.6,1.6Z" fill="#ca5862"/>
          <path d="M117.8,203.5c.9,1.4,1.7,3,3,4.1,0,.4-1.3,1.9-1.7,2.4-2.2,3.3-4.5,6.5-6.8,9.7,0,.3-.5,1.4.4,1.5,3.7-3.2,6.8-10,10.6-13.4-1.4-1.7-2.6-3.6-3.8-5.4l-1.7,1.1Z" fill="#dd3441"/>
          <path d="M111,193.6l-10.2,14.3,6.6,8.1c0,0-.4-1.2-.6-1.6-.7-1-4.4-5.6-4.2-6.6l7.4-9.8c.4-1.6,1.3-3.1,1.9-4.7l-.8.2Z" fill="#9a3f53"/>
          <path d="M111,193.6l.8-.2c.8.5,1,2.3,1.5,3.1s.4.6.4.7c1.3,2.2,2.7,4.2,4,6.3l1.7-1.1c-2.4-3.5-5.1-6.9-7.4-10.5l-1.1,1.6Z" fill="#b72532"/>
          <path d="M111.8,193.4c-.6,1.5-1.5,3.1-1.9,4.7s0,2-.2,2.6c-.3,1.3-1.8,5.7-1.7,6.6,0,1.4,3.2,5.7,4,7.1,0,0,.1-.1.2-.4l-.4-17.9.6.5c0-.4-.5-1.2,0-1.4.3.6.3,1.5.4,2h.8c0-.1-.3-.5-.4-.7-.4-.8-.7-2.5-1.5-3.1Z" fill="#dd3441"/>
          <path d="M118,209.5c-2.3,0-3.7,1.6-4.9,3.4s-.8.9-.8,1.1c-.1.3-.2.4-.2.4-.3,1.7,0,3.8.2,5.5,2.3-3.2,4.6-6.4,6.8-9.7,0-.7-.5-.6-1.1-.6Z" fill="#f38396"/>
          <path d="M112.9,197.2c.3,1.2.8,2.8,1.3,3.9s3.3,5.1,3.4,5.5c.2.8-.5,1-.4,1.1.5.2,1.5-.4,2.1,0l-3.2,1.5,1.9.3c.6,0,1.1,0,1.1.6.3-.5,1.8-2,1.7-2.4-1.3-1.2-2.1-2.7-3-4.1-1.3-2.1-2.8-4.2-4-6.3h-.8Z" fill="#fa6579"/>
          <path d="M112.3,216c.1-.2,1.1-.9,1.4-1.3,0-1.3,5.5-6.5,5.4-7s-3.5-4.6-4.1-5.8c-.8-1.8-1.9-4.8-2.4-6.7l-1-.6.7,21.4Z" fill="#fa6579"/>
        </g>
      </g>
      <g>
        <path d="M115.3,5.3c3.5,5.4,7.4,10.6,11.2,15.8-2.6,3.8-5.4,7.5-8.3,11.1s-4.7,6.7-6.8,7.2l-13.5-17.5v-1.2L112.2.8c.8,1.6,2.2,3,3.2,4.4Z" fill="#fdfcfc"/>
        <g>
          <path d="M121.7,28.6c-.9,1.1-1.9,2.2-2.8,3.4-.3,0-.5.7-.6.2,2.9-3.6,5.7-7.3,8.3-11.1-3.8-5.2-7.7-10.3-11.2-15.8l.2-.2c3.6,5.5,8.2,10.5,11.9,16-1.9,2.5-3.8,5.1-5.7,7.5Z" fill="#ba9caa"/>
          <path d="M112.2.8l-14.2,19.9-.4-.2L111.9,0c.2.4.2.7.2.8Z" fill="#ba9caa"/>
          <path d="M98,20.7v1.2l13.5,17.5s0,.2-.2.2c-.1-.5-1.3-1.2-1.5-1.5s-.3-.4-.4-.6c-.9-1.2-1.8-2.4-2.8-3.6s-1.2-1.4-1.7-2.1c-.8-1.1-1.7-2.1-2.5-3.2-1.8-2.4-3.5-4.9-5.5-7.1l.6-1,.4.2Z" fill="#ba9caa"/>
          <path d="M116.6,29.4c-1.4,2-3,4-4.6,5.9-.4,0-.6-.5-.7-.6.9,0,.4-1.1.4-1.5.1-1.7.5-3.9.2-5.5.8-1.4,3.9-5.7,4-7.1s-1.4-5.3-1.7-6.6-.1-2.3-.2-2.6l7.4,9.8c.1.9-3.6,5.6-4.2,6.6s-.6,1.5-.6,1.6Z" fill="#ca5862"/>
          <path d="M106.2,16.9c-.9,1.4-1.7,3-3,4.1,0,.4,1.3,1.9,1.7,2.4,2.2,3.3,4.5,6.5,6.8,9.7,0,.3.5,1.4-.4,1.5-3.7-3.2-6.8-10-10.6-13.4,1.4-1.7,2.6-3.6,3.8-5.4l1.7,1.1Z" fill="#dd3441"/>
          <path d="M113,7l10.2,14.3-6.6,8.1c0,0,.4-1.2.6-1.6.7-1,4.4-5.6,4.2-6.6l-7.4-9.8c-.4-1.6-1.3-3.1-1.9-4.7l.8.2Z" fill="#9a3f53"/>
          <path d="M113,7l-.8-.2c-.8.5-1,2.3-1.5,3.1s-.4.6-.4.7c-1.3,2.2-2.7,4.2-4,6.3l-1.7-1.1c2.4-3.5,5.1-6.9,7.4-10.5l1.1,1.6Z" fill="#b72532"/>
          <path d="M112.2,6.8c.6,1.5,1.5,3.1,1.9,4.7s0,2,.2,2.6c.3,1.3,1.8,5.7,1.7,6.6,0,1.4-3.2,5.7-4,7.1,0,0-.1-.1-.2-.4l.4-17.9-.6.5c0-.4.5-1.2,0-1.4-.3.6-.3,1.5-.4,2h-.8c0-.1.3-.5.4-.7.4-.8.7-2.5,1.5-3.1Z" fill="#dd3441"/>
          <path d="M106,22.9c2.3,0,3.7,1.6,4.9,3.4s.8.9.8,1.1c.1.3.2.4.2.4.3,1.7,0,3.8-.2,5.5-2.3-3.2-4.6-6.4-6.8-9.7,0-.7.5-.6,1.1-.6Z" fill="#f38396"/>
          <path d="M111.1,10.6c-.3,1.2-.8,2.8-1.3,3.9s-3.3,5.1-3.4,5.5c-.2.8.5,1,.4,1.1-.5.2-1.5-.4-2.1,0l3.2,1.5-1.9.3c-.6,0-1.1,0-1.1.6-.3-.5-1.8-2-1.7-2.4,1.3-1.2,2.1-2.7,3-4.1,1.3-2.1,2.8-4.2,4-6.3h.8Z" fill="#fa6579"/>
          <path d="M111.7,27.3c0-.2-.7-.8-.8-1.1,0-1.1-3.4-5.4-3.4-5.8s2.2-3.8,2.5-4.9c.5-1.5,1.2-4,1.5-5.6l.6-.5-.4,17.9Z" fill="#fa6579"/>
          <path d="M111.5,9.9c-.3,1.6-1,4.1-1.5,5.6s-2.5,4.6-2.5,4.9c0,.4,3.4,4.8,3.4,5.8-1.1-1.8-2.6-3.3-4.9-3.4l1.9-.3-3.2-1.5c.6-.4,1.6.2,2.1,0s-.6-.3-.4-1.1,2.9-4.3,3.4-5.5.9-2.7,1.3-3.9,0-1.4.4-2c.5.2,0,1,0,1.4Z" fill="#fcf1ee"/>
        </g>
      </g>
      <g>
        <path d="M217.9,116.8c-5.4,3.5-10.6,7.4-15.8,11.2-3.8-2.6-7.5-5.4-11.1-8.3s-6.7-4.7-7.2-6.8l17.5-13.5h1.2l19.9,14.2c-1.6.8-3,2.2-4.4,3.2Z" fill="#fdfcfc"/>
        <g>
          <path d="M194.6,123.2c-1.1-.9-2.2-1.9-3.4-2.8,0-.3-.7-.5-.2-.6,3.6,2.9,7.3,5.7,11.1,8.3,5.2-3.8,10.3-7.7,15.8-11.2l.2.2c-5.5,3.6-10.5,8.2-16,11.9-2.5-1.9-5.1-3.8-7.5-5.7Z" fill="#ba9caa"/>
          <path d="M222.3,113.7l-19.9-14.2.2-.4,20.5,14.4c-.4.2-.7.2-.8.2Z" fill="#ba9caa"/>
          <path d="M202.4,99.5h-1.2l-17.5,13.5s-.2,0-.2-.2c.5-.1,1.2-1.3,1.5-1.5s.4-.3.6-.4c1.2-.9,2.4-1.8,3.6-2.8s1.4-1.2,2.1-1.7c1.1-.8,2.1-1.7,3.2-2.5,2.4-1.8,4.9-3.5,7.1-5.5l1,.6-.2.4Z" fill="#ba9caa"/>
          <path d="M193.7,118.1c-2-1.4-4-3-5.9-4.6,0-.4.5-.6.6-.7,0,.9,1.1.4,1.5.4,1.7.1,3.9.5,5.5.2,1.4.8,5.7,3.9,7.1,4s5.3-1.4,6.6-1.7,2.3-.1,2.6-.2l-9.8,7.4c-.9.1-5.6-3.6-6.6-4.2s-1.5-.6-1.6-.6Z" fill="#ca5862"/>
          <path d="M206.2,107.7c-1.4-.9-3-1.7-4.1-3-.4,0-1.9,1.3-2.4,1.7-3.3,2.2-6.5,4.5-9.7,6.8-.3,0-1.4.5-1.5-.4,3.2-3.7,10-6.8,13.4-10.6,1.7,1.4,3.6,2.6,5.4,3.8l-1.1,1.7Z" fill="#dd3441"/>
          <path d="M216.2,114.5l-14.3,10.2-8.1-6.6c0,0,1.2.4,1.6.6,1,.7,5.6,4.4,6.6,4.2l9.8-7.4c1.6-.4,3.1-1.3,4.7-1.9l-.2.8Z" fill="#9a3f53"/>
          <path d="M216.2,114.5l.2-.8c-.5-.8-2.3-1-3.1-1.5s-.6-.4-.7-.4c-2.2-1.3-4.2-2.7-6.3-4l1.1-1.7c3.5,2.4,6.9,5.1,10.5,7.4l-1.6,1.1Z" fill="#b72532"/>
          <path d="M216.4,113.7c-1.5.6-3.1,1.5-4.7,1.9s-2,0-2.6.2c-1.3.3-5.7,1.8-6.6,1.7-1.4,0-5.7-3.2-7.1-4,0,0,.1-.1.4-.2l17.9.4-.5-.6c.4,0,1.2.5,1.4,0-.6-.3-1.5-.3-2-.4v-.8c.1,0,.5.3.7.4.8.4,2.5.7,3.1,1.5Z" fill="#dd3441"/>
          <path d="M200.3,107.5c0,2.3-1.6,3.7-3.4,4.9s-.9.8-1.1.8c-.3.1-.4.2-.4.2-1.7.3-3.8,0-5.5-.2,3.2-2.3,6.4-4.6,9.7-6.8.7,0,.6.5.6,1.1Z" fill="#f38396"/>
          <path d="M212.6,112.6c-1.2-.3-2.8-.8-3.9-1.3s-5.1-3.3-5.5-3.4c-.8-.2-1,.5-1.1.4-.2-.5.4-1.5,0-2.1l-1.5,3.2-.3-1.9c0-.6,0-1.1-.6-1.1.5-.3,2-1.8,2.4-1.7,1.2,1.3,2.7,2.1,4.1,3,2.1,1.3,4.2,2.8,6.3,4v.8Z" fill="#fa6579"/>
          <path d="M195.9,113.2c.2,0,.8-.7,1.1-.8,1.1,0,5.4-3.4,5.8-3.4s3.8,2.2,4.9,2.5c1.5.5,4,1.2,5.6,1.5l.5.6-17.9-.4Z" fill="#fa6579"/>
          <path d="M213.2,113c-1.6-.3-4.1-1-5.6-1.5s-4.6-2.5-4.9-2.5c-.4,0-4.8,3.4-5.8,3.4,1.8-1.1,3.3-2.6,3.4-4.9l.3,1.9,1.5-3.2c.4.6-.2,1.6,0,2.1s.3-.6,1.1-.4,4.3,2.9,5.5,3.4,2.7.9,3.9,1.3,1.4,0,2,.4c-.2.5-1,0-1.4,0Z" fill="#fcf1ee"/>
        </g>
      </g>
      <g>
        <path d="M5.5,116.5c5.4,3.5,10.6,7.4,15.8,11.2,3.8-2.6,7.5-5.4,11.1-8.3s6.7-4.7,7.2-6.8l-17.5-13.5h-1.2S1.1,113.4,1.1,113.4c1.6.8,3,2.2,4.4,3.2Z" fill="#fdfcfc"/>
        <g>
          <path d="M28.6,123.2c1.1-.9,2.2-1.9,3.4-2.8,0-.3.7-.5.2-.6-3.6,2.9-7.3,5.7-11.1,8.3-5.2-3.8-10.3-7.7-15.8-11.2l-.2.2c5.5,3.6,10.5,8.2,16,11.9,2.5-1.9,5.1-3.8,7.5-5.7Z" fill="#ba9caa"/>
          <path d="M.8,113.7l19.9-14.2-.2-.4L0,113.4c.4.2.7.2.8.2Z" fill="#ba9caa"/>
          <path d="M20.7,99.5h1.2s17.5,13.5,17.5,13.5c0,0,.2,0,.2-.2-.5-.1-1.2-1.3-1.5-1.5s-.4-.3-.6-.4c-1.2-.9-2.4-1.8-3.6-2.8s-1.4-1.2-2.1-1.7c-1.1-.8-2.1-1.7-3.2-2.5-2.4-1.8-4.9-3.5-7.1-5.5l-1,.6.2.4Z" fill="#ba9caa"/>
          <path d="M29.4,118.1c2-1.4,4-3,5.9-4.6,0-.4-.5-.6-.6-.7,0,.9-1.1.4-1.5.4-1.7.1-3.9.5-5.5.2-1.4.8-5.7,3.9-7.1,4s-5.3-1.4-6.6-1.7-2.3-.1-2.6-.2l9.8,7.4c.9.1,5.6-3.6,6.6-4.2s1.5-.6,1.6-.6Z" fill="#ca5862"/>
          <path d="M16.9,107.7c1.4-.9,3-1.7,4.1-3,.4,0,1.9,1.3,2.4,1.7,3.3,2.2,6.5,4.5,9.7,6.8.3,0,1.4.5,1.5-.4-3.2-3.7-10-6.8-13.4-10.6-1.7,1.4-3.6,2.6-5.4,3.8l1.1,1.7Z" fill="#dd3441"/>
          <path d="M7,114.5l14.3,10.2,8.1-6.6c0,0-1.2.4-1.6.6-1,.7-5.6,4.4-6.6,4.2l-9.8-7.4c-1.6-.4-3.1-1.3-4.7-1.9l.2.8Z" fill="#9a3f53"/>
          <path d="M7,114.5l-.2-.8c.5-.8,2.3-1,3.1-1.5s.6-.4.7-.4c2.2-1.3,4.2-2.7,6.3-4l-1.1-1.7c-3.5,2.4-6.9,5.1-10.5,7.4l1.6,1.1Z" fill="#b72532"/>
          <path d="M6.8,113.7c1.5.6,3.1,1.5,4.7,1.9s2,0,2.6.2c1.3.3,5.7,1.8,6.6,1.7,1.4,0,5.7-3.2,7.1-4,0,0-.1-.1-.4-.2l-17.9.4.5-.6c-.4,0-1.2.5-1.4,0,.6-.3,1.5-.3,2-.4v-.8c-.1,0-.5.3-.7.4-.8.4-2.5.7-3.1,1.5Z" fill="#dd3441"/>
          <path d="M22.9,107.5c0,2.3,1.6,3.7,3.4,4.9s.9.8,1.1.8c.3.1.4.2.4.2,1.7.3,3.8,0,5.5-.2-3.2-2.3-6.4-4.6-9.7-6.8-.7,0-.6.5-.6,1.1Z" fill="#f38396"/>
          <path d="M10.6,112.6c1.2-.3,2.8-.8,3.9-1.3s5.1-3.3,5.5-3.4c.8-.2,1,.5,1.1.4.2-.5-.4-1.5,0-2.1l1.5,3.2.3-1.9c0-.6,0-1.1.6-1.1-.5-.3-2-1.8-2.4-1.7-1.2,1.3-2.7,2.1-4.1,3-2.1,1.3-4.2,2.8-6.3,4v.8Z" fill="#fa6579"/>
          <path d="M27.3,113.2c-.2,0-.8-.7-1.1-.8-1.1,0-5.4-3.4-5.8-3.4s-3.8,2.2-4.9,2.5c-1.5.5-4,1.2-5.6,1.5l-.5.6,17.9-.4Z" fill="#fa6579"/>
          <path d="M9.9,113c1.6-.3,4.1-1,5.6-1.5s4.6-2.5,4.9-2.5c.4,0,4.8,3.4,5.8,3.4-1.8-1.1-3.3-2.6-3.4-4.9l-.3,1.9-1.5-3.2c-.4.6.2,1.6,0,2.1s-.3-.6-1.1-.4-4.3,2.9-5.5,3.4-2.7.9-3.9,1.3-1.4,0-2,.4c.2.5,1,0,1.4,0Z" fill="#fcf1ee"/>
        </g>
      </g>
    </g>
    <g>
      <path d="M238.4,93.6c-3.6,0-6.8-.8-9.5-2.3-2.7-1.5-4.8-3.7-6.2-6.5-1.5-2.8-2.2-6-2.2-9.8s.5-5.8,1.6-8.4c1-2.6,2.5-4.8,4.4-6.7,1.9-1.9,4.1-3.4,6.6-4.4s5.3-1.6,8.4-1.6,2.5,0,3.7.2c1.2.1,2.4.3,3.4.5,1,.2,2.1.4,3.4.7l.2.4c-.4,1.8-.7,3.5-1,5-.2,1.5-.4,3.2-.5,5l-2.9.2c.1-1.3.2-2.3.2-2.9,0-1.9-.7-3.3-2.2-4.2-1.5-.9-3.7-1.4-6.6-1.4s-5,.6-7,1.9c-2,1.3-3.5,3.1-4.6,5.4-1.1,2.3-1.6,5.1-1.6,8.3s.6,6.6,1.7,9.2c1.1,2.6,2.7,4.7,4.8,6.1s4.5,2.2,7.2,2.2,4.9-.8,6.6-2.3c1.7-1.5,2.9-3.9,3.6-7.2l2.9-.2c-.2,1.2-.5,2.3-.6,3.3-.2,1-.4,2-.5,3.2-.2,1.1-.3,2.2-.5,3.3l-.4.5c-2.1.8-4.1,1.4-5.9,1.8-1.8.4-4,.6-6.4.6Z" fill="#ac4a5e"/>
      <path d="M257.7,90.5c1.2-.1,2-.4,2.4-.9.5-.5.7-1.3.7-2.4v-31.9c0-1.1-.2-1.9-.5-2.4s-.9-.8-1.7-.8h-1.3l-.2-.2.2-1.9c.9-.1,1.9-.3,3-.5s2.2-.4,3.2-.6c1-.2,1.9-.4,2.6-.6l.4.8c-.2.3-.3,1.3-.5,3.2-.2,1.8-.4,4.3-.5,7.3-.1,3-.3,6.4-.4,10.1.3-.2.8-.5,1.5-1,.7-.5,1.6-1,2.5-1.6.9-.6,1.9-1,2.8-1.4.9-.4,1.6-.6,2.2-.6,2.6,0,4.6.7,6.1,2,1.4,1.3,2.2,3.2,2.2,5.7s0,1.4-.1,2.6c-.1,1.2-.2,2.5-.3,4-.1,1.5-.2,2.9-.3,4.3-.1,1.4-.2,2.5-.2,3.4s.2,2,.5,2.5c.3.5.9.8,1.6.8s.6,0,1,0c.4,0,.8,0,1.1,0v.2c.1,0-.4,2.6-.4,2.6-.6,0-1.5,0-2.5-.1-1.1,0-2,0-2.8,0s-1.1,0-1.7,0c-.7,0-1.4.1-2.2.2-.8,0-1.5.2-2.3.4l.2-2.5c1.2-.3,2.1-.8,2.6-1.4.5-.6.8-1.4.8-2.5l.4-11.9c0-2-.4-3.5-1.3-4.6-.9-1.1-2.1-1.6-3.7-1.6s-2.2.3-3.7,1c-1.5.6-2.8,1.4-3.9,2.3,0,1.5,0,3,0,4.6,0,1.6,0,3.2,0,4.9,0,1.7,0,3.4,0,5.1s.2,2.1.5,2.6.9.8,1.7.8.6,0,1,0c.4,0,.8,0,1.1,0v.2c.1,0-.4,2.6-.4,2.6-.7,0-1.6,0-2.6-.1s-2,0-2.8,0-1.8,0-3,0c-1.1,0-2.1,0-3,0l.4-2.5Z" fill="#ac4a5e"/>
      <path d="M310,93.6c-1.6,0-2.9-.4-3.8-1.2-.9-.8-1.4-2-1.6-3.6h-.2c-1,.9-1.9,1.7-2.7,2.4-.9.7-1.6,1.2-2.3,1.6-.7.4-1.2.6-1.6.6-1.5,0-2.8-.3-4-1-1.2-.6-2.1-1.5-2.7-2.6-.7-1.1-1-2.4-1-3.8s.3-2.2.9-3.1c.6-.9,1.3-1.5,2.3-1.7l11.4-3.1v-2.6c0-2-.4-3.6-1.3-4.7-.9-1.1-2.2-1.7-3.9-1.7s-2.3.3-3.5.8c-1.2.5-2.5,1.3-3.7,2.2l-.3-.2-.7-2.6c1-.6,2.2-1.2,3.5-1.9,1.3-.7,2.5-1.2,3.7-1.6,1.2-.4,2-.7,2.6-.7,1.8,0,3.3.3,4.5.9,1.2.6,2.2,1.5,2.9,2.6.7,1.1,1,2.5,1,4.2s0,1.4-.1,2.5c-.1,1.2-.2,2.5-.4,3.9-.2,1.4-.3,2.8-.4,4.1-.1,1.3-.2,2.4-.2,3.3s.2,1.6.7,2c.4.5,1,.7,1.8.7s1.4-.2,2-.5c.7-.3,1.2-.7,1.6-1l.8,1c-.3.5-.8,1.1-1.3,1.8-.5.7-1.1,1.3-1.8,1.8-.7.6-1.4,1-2.1,1.2ZM298.8,89.3c.8,0,1.6-.3,2.7-.8,1-.5,2-1.2,2.8-2.1l.3-6.1-8.2,2.5c-1.2.4-1.7,1.2-1.7,2.5s.4,2.1,1.2,2.9,1.8,1.2,3,1.2Z" fill="#ac4a5e"/>
      <path d="M325.9,93.6c-1.4,0-2.7-.1-3.8-.3-1.1-.2-2.2-.5-3.4-.9l-.2-.4c0-.4.2-1.2.3-2.2,0-1,.2-2.1.3-3.2,0-1.1.2-2,.2-2.6l2.1-.3c0,2.6.4,4.5,1.3,5.6.9,1.1,2.4,1.6,4.5,1.6s2.8-.3,3.8-1c1-.7,1.6-1.5,1.6-2.5s-.2-1.3-.6-1.9c-.4-.6-1.1-1.2-2.1-1.9-1-.7-2.4-1.5-4.3-2.5-2.3-1.2-3.9-2.3-5-3.5-1-1.2-1.6-2.5-1.6-4s.5-3.1,1.4-4.4c1-1.3,2.3-2.3,4-3,1.7-.7,3.6-1.1,5.6-1.1s3.6.3,6,1v.3c-.2,1.4-.4,2.6-.6,3.7-.2,1.1-.3,2.3-.5,3.6l-2.2.2c0-.9.1-1.5.1-1.7,0-1.4-.4-2.5-1.2-3.1-.8-.7-2-1-3.8-1s-2.5.3-3.5,1c-.9.6-1.4,1.4-1.4,2.3s.4,1.9,1.2,2.7c.8.8,2.2,1.7,4,2.7,2.2,1.1,3.8,2.1,5.1,3,1.2.9,2.1,1.8,2.6,2.6.5.8.8,1.8.8,2.8,0,1.5-.5,2.9-1.5,4.3-1,1.3-2.4,2.4-4,3.1-1.7.8-3.5,1.2-5.4,1.2Z" fill="#ac4a5e"/>
      <path d="M350,93.6c-1.4,0-2.7-.1-3.8-.3-1.1-.2-2.2-.5-3.4-.9l-.2-.4c0-.4.2-1.2.3-2.2,0-1,.2-2.1.3-3.2,0-1.1.2-2,.2-2.6l2.1-.3c0,2.6.4,4.5,1.3,5.6.9,1.1,2.4,1.6,4.5,1.6s2.8-.3,3.8-1c1-.7,1.6-1.5,1.6-2.5s-.2-1.3-.6-1.9c-.4-.6-1.1-1.2-2.1-1.9-1-.7-2.4-1.5-4.3-2.5-2.3-1.2-3.9-2.3-5-3.5-1-1.2-1.6-2.5-1.6-4s.5-3.1,1.4-4.4c1-1.3,2.3-2.3,4-3,1.7-.7,3.6-1.1,5.6-1.1s3.6.3,6,1v.3c-.2,1.4-.4,2.6-.6,3.7-.2,1.1-.3,2.3-.5,3.6l-2.2.2c0-.9.1-1.5.1-1.7,0-1.4-.4-2.5-1.2-3.1-.8-.7-2-1-3.8-1s-2.5.3-3.5,1c-.9.6-1.4,1.4-1.4,2.3s.4,1.9,1.2,2.7c.8.8,2.2,1.7,4,2.7,2.2,1.1,3.8,2.1,5.1,3,1.2.9,2.1,1.8,2.6,2.6.5.8.8,1.8.8,2.8,0,1.5-.5,2.9-1.5,4.3-1,1.3-2.4,2.4-4,3.1-1.7.8-3.5,1.2-5.4,1.2Z" fill="#ac4a5e"/>
      <path d="M378.6,93.6c-2.5,0-4.7-.6-6.6-1.7-1.9-1.1-3.4-2.7-4.4-4.7-1.1-2-1.6-4.3-1.6-6.9s.3-4,1-5.8c.7-1.8,1.7-3.5,2.9-4.9,1.2-1.4,2.6-2.5,4.2-3.4,1.6-.8,3.3-1.2,5.1-1.2,6,0,8.9,2.9,8.9,8.7s0,1.1-.1,1.6c0,.6-.2,1-.2,1.3l-.8.7h-16.6c0,3.6.6,6.4,2,8.4,1.3,2.1,3.2,3.3,5.7,3.6,2.4.3,5.3-.2,8.6-1.8h.4c0,.1.7,1.9.7,1.9-.8.6-1.8,1.2-2.9,1.8-1.1.6-2.2,1.2-3.3,1.6-1.1.4-2.1.7-3,.7ZM370.8,75.2l10.9-.5c.6,0,1-.2,1.2-.4.2-.2.3-.6.3-1.2,0-1.6-.4-2.8-1.3-3.7-.9-.8-2.1-1.3-3.7-1.3s-3.4.6-4.8,1.9c-1.4,1.3-2.2,3-2.6,5.2Z" fill="#ac4a5e"/>
      <path d="M240.4,151.6c-1.6,0-2.9-.4-3.8-1.2-.9-.8-1.4-2-1.6-3.6h-.2c-1,.9-1.9,1.7-2.7,2.4-.9.7-1.6,1.2-2.3,1.6-.7.4-1.2.6-1.6.6-1.5,0-2.8-.3-4-1-1.2-.6-2.1-1.5-2.7-2.6-.7-1.1-1-2.4-1-3.8s.3-2.2.9-3.1c.6-.9,1.3-1.5,2.3-1.7l11.4-3.1v-2.6c0-2-.4-3.6-1.3-4.7-.9-1.1-2.2-1.7-3.9-1.7s-2.3.3-3.5.8c-1.2.5-2.5,1.3-3.7,2.2l-.3-.2-.7-2.6c1-.6,2.2-1.2,3.5-1.9,1.3-.7,2.5-1.2,3.7-1.6,1.2-.4,2-.7,2.6-.7,1.8,0,3.3.3,4.5.9,1.2.6,2.2,1.5,2.9,2.6.7,1.1,1,2.5,1,4.2s0,1.4-.1,2.5c-.1,1.2-.2,2.5-.4,3.9-.2,1.4-.3,2.8-.4,4.1-.1,1.3-.2,2.4-.2,3.3s.2,1.6.7,2c.4.5,1,.7,1.8.7s1.4-.2,2-.5c.7-.3,1.2-.7,1.6-1l.8,1c-.3.5-.8,1.1-1.3,1.8-.5.7-1.1,1.3-1.8,1.8-.7.6-1.4,1-2.1,1.2ZM229.2,147.3c.8,0,1.6-.3,2.7-.8,1-.5,2-1.2,2.8-2.1l.3-6.1-8.2,2.5c-1.2.4-1.7,1.2-1.7,2.5s.4,2.1,1.2,2.9,1.8,1.2,3,1.2Z" fill="#ac4a5e"/>
      <path d="M251.4,130c0-1-.2-1.8-.5-2.4-.4-.6-.9-.8-1.7-.8s-.8,0-1.5.2l.2-2.2c.9-.2,1.9-.3,2.9-.5,1-.2,1.9-.4,2.8-.6.9-.2,1.8-.4,2.9-.7l.4.7c-.2.5-.4,1.4-.6,2.7s-.4,2.7-.5,4.4c-.2,1.7-.3,3.5-.4,5.3,0,1.9-.1,3.7-.1,5.4,0,3.9,1.6,5.9,4.8,5.9s2.7-.4,3.9-1.2c1.2-.8,2.3-1.5,3.3-2.2v-13.9c0-1.2-.2-2-.7-2.5-.4-.5-1.2-.7-2.3-.7s-.6,0-1.4,0l.2-2.2c1.1-.2,2.2-.3,3.2-.5s2.1-.4,3-.6c.9-.2,1.9-.4,3-.6l.4.7c-.2.6-.5,1.9-.7,4s-.4,4.6-.5,7.6c-.1,3-.2,6-.2,9.2s.2,1.6.7,2c.4.5,1,.7,1.8.7s1.2-.1,1.8-.4c.5-.3,1.1-.6,1.8-1.1l.8,1c-.7,1-1.3,1.8-1.8,2.4s-1.1,1.2-1.7,1.7c-.6.5-1.2.7-1.7.7-3.2,0-5-1.6-5.3-4.9h-.3c-1.9,1.4-3.7,2.6-5.2,3.5-1.5.9-2.6,1.4-3.2,1.4-2.6,0-4.5-.6-5.9-1.8-1.4-1.2-2.1-2.9-2.1-5.2l.2-14.6Z" fill="#ac4a5e"/>
      <path d="M293.7,150.9l.4-1.9c1,0,1.7-.2,2.1-.4.4-.2.6-.5.6-.9s0-.5-.2-.9c-.2-.4-.4-.8-.8-1.3l-4.4-6.1c-.7.9-1.6,1.9-2.5,3.1s-1.8,2.3-2.5,3.2c-.7,1-1,1.7-1,2s.2.7.5.8c.4.1,1.1.2,2.1.3v.2c.1,0-.2,2-.2,2-.8,0-1.4,0-2-.1-.6,0-1.1,0-1.7,0-.5,0-1,0-1.3,0-.5,0-1.1,0-1.6,0-.6,0-1.2,0-2,.1l-.2-.3.4-1.9c.7-.4,1.3-.8,1.9-1.2.5-.4,1.1-1,1.6-1.6.6-.6,1.3-1.5,2.1-2.5l5.2-6-4.6-6.5c-.9-1.3-1.6-2.3-2.2-2.9-.6-.7-1.2-1.2-1.9-1.5-.6-.3-1.4-.6-2.4-.8v-.2c-.1,0,.2-2,.2-2,1.5,0,2.7,0,3.7,0,1,0,1.8,0,2.4,0,1.2,0,2.2,0,3.1,0s1.9,0,3-.2v.3c.1,0-.2,1.9-.2,1.9-1.8,0-2.7.4-2.7,1.1s.1.8.4,1.3c.3.5.6,1,1,1.5l3.3,4.8,3.7-4.6c.6-.7,1-1.3,1.3-1.7.3-.5.5-.9.5-1.3s-.2-.5-.5-.6c-.3,0-1-.2-2.1-.2v-.2c-.1,0,.2-2,.2-2h4.4c.6,0,1.2,0,1.8,0,.7,0,1.5,0,2.4-.1l.2.3-.4,1.9c-.6.2-1.4.7-2.2,1.5-.9.8-1.8,1.8-2.8,3l-5.2,6.1,5.5,7.9c1,1.5,2,2.6,2.9,3.3.9.7,2,1.1,3.2,1.2v.2c.1,0-.2,2-.2,2-1.3,0-2.4,0-3.2,0-.9,0-1.6,0-2.2,0s-1.3,0-2,0c-.8,0-1.5,0-2.2.1-.7,0-1.5,0-2.5.2v-.3Z" fill="#ac4a5e"/>
      <path d="M333.6,151.6c-2.5,0-4.7-.6-6.6-1.7-1.9-1.1-3.4-2.7-4.4-4.7-1.1-2-1.6-4.3-1.6-6.9s.3-4,1-5.8c.7-1.8,1.7-3.5,2.9-4.9,1.2-1.4,2.6-2.5,4.2-3.4,1.6-.8,3.3-1.2,5.1-1.2,6,0,8.9,2.9,8.9,8.7s0,1.1-.1,1.6c0,.6-.2,1-.2,1.3l-.8.7h-16.6c0,3.6.6,6.4,2,8.4,1.3,2.1,3.2,3.3,5.7,3.6,2.4.3,5.3-.2,8.6-1.8h.4c0,.1.7,1.9.7,1.9-.8.6-1.8,1.2-2.9,1.8-1.1.6-2.2,1.2-3.3,1.6-1.1.4-2.1.7-3,.7ZM325.8,133.2l10.9-.5c.6,0,1-.2,1.2-.4.2-.2.3-.6.3-1.2,0-1.6-.4-2.8-1.3-3.7-.9-.8-2.1-1.3-3.7-1.3s-3.4.6-4.8,1.9c-1.4,1.3-2.2,3-2.6,5.2ZM331,119.6h-.5c0-.1-1.2-1.3-1.2-1.3,1.1-1.2,2.1-2.3,3.2-3.6,1.1-1.2,2-2.3,2.9-3.4.9-1,1.8-2.2,2.9-3.5h.6c0,.1,2.3,2.6,2.3,2.6v.7c-2,1.5-3.8,2.9-5.3,4.2-1.5,1.3-3.2,2.7-4.8,4.2Z" fill="#ac4a5e"/>
      <path d="M348.8,162.7c1.3-.2,2.1-.5,2.5-1,.4-.5.6-1.6.6-3.3s0-1.6,0-2.8c0-1.2,0-2.5,0-3.9,0-1.3,0-2.4,0-3.3v-17.9c0-1.4-.2-2.3-.7-2.8s-1.2-.8-2.3-.8h-.7l-.2-.2.2-2c1.4-.2,2.7-.5,4-.8,1.3-.3,2.7-.6,4.4-1l.4.5c-.3,1.4-.5,2.4-.6,3.2l.2.4c1.8-1.2,3.2-2.2,4.5-2.9,1.2-.7,2-1,2.5-1,2.3,0,4.3.5,6.1,1.6,1.7,1.1,3.1,2.5,4,4.4,1,1.9,1.5,4.1,1.5,6.6s-.4,4.2-1.2,6.1c-.8,1.9-1.9,3.6-3.2,5-1.4,1.4-3,2.6-4.8,3.4s-3.7,1.2-5.8,1.2-1.1,0-1.7,0c-.7,0-1.6-.1-2.6-.2,0,1,0,2,0,3.1,0,1,0,2.1,0,3.1,0,1.8.2,3.1.6,3.8.4.7,1.1,1,2.2,1s.7,0,1,0c.4,0,.7,0,1,0v.2c.1,0-.4,2.3-.4,2.3h-5.7c-1.1,0-2.2,0-3.1,0-1,0-2.1.2-3.2.3l.3-2.3ZM362,148.3c2.7,0,4.8-.9,6.3-2.7,1.5-1.8,2.3-4.3,2.3-7.5s-.4-3.9-1.1-5.5c-.7-1.6-1.6-2.9-2.8-3.9s-2.5-1.4-4-1.4-1.8.3-2.9.8c-1.2.5-2.3,1.2-3.3,2.1,0,1.6-.2,3.4-.2,5.4,0,2-.1,3.9-.2,5.9,0,2,0,3.9,0,5.6.8.3,1.8.6,2.9.8,1.1.2,2.1.3,3.1.3Z" fill="#ac4a5e"/>
      <path d="M380.3,149.1c1.2-.3,2.1-.8,2.6-1.4.5-.6.8-1.4.8-2.5v-15.2c0-1.1-.2-1.9-.5-2.5-.4-.5-.9-.8-1.7-.8s-.8,0-1.5.2l.2-2.2c1-.2,2-.3,3-.5,1-.2,2-.4,2.8-.6s1.8-.4,2.8-.6l.3.7c-.2.4-.3,1.3-.5,2.7-.2,1.4-.3,3.1-.5,5-.1,2-.2,4.1-.3,6.5,0,2.3-.1,4.7-.1,7s.2,2,.5,2.5.9.8,1.6.8,1.1,0,2.1-.1v.2c.1,0-.4,2.6-.4,2.6-.7,0-1.3,0-1.8,0-.5,0-1.1,0-1.7,0-.6,0-1.2,0-1.8,0-.8,0-1.7,0-2.7.2s-2.1.3-3.5.5l.2-2.5ZM385.4,115.9c-1,0-1.7-.3-2.2-1-.5-.6-.7-1.3-.7-2.1s.3-1.8,1-2.5c.7-.7,1.5-1,2.5-1s1.7.3,2.2.9c.5.6.8,1.3.8,2.1s-.3,1.8-1,2.5c-.7.7-1.5,1-2.5,1Z" fill="#ac4a5e"/>
      <path d="M407.1,165.4c-1.9,0-3.5-.3-4.9-1-1.4-.6-2.4-1.6-3.2-2.8s-1.1-2.6-1.1-4.3c.6-.7,1.4-1.5,2.4-2.5,1.1-1,2.2-2,3.5-2.9v-.4c-2.1-.4-3.7-1-4.8-2-1.1-1-1.7-2.3-1.8-3.8.7-.7,1.5-1.4,2.3-2,.8-.7,1.7-1.3,2.7-1.8v-.8l3.1,1c-1.2.6-2.1,1.2-2.7,1.7s-.8,1-.8,1.5c0,.8.5,1.4,1.4,1.8,1,.4,2.2.7,3.7.8s3.1.4,4.8.6,3.3.5,4.8.9,2.7,1,3.7,1.9,1.4,2,1.4,3.5-.4,2.6-1.2,3.9c-.8,1.3-1.9,2.4-3.4,3.4s-3,1.8-4.8,2.4c-1.8.6-3.6.9-5.5.9ZM408,143.1c-2,0-3.7-.4-5.2-1.2-1.5-.8-2.7-1.9-3.5-3.2-.9-1.4-1.3-2.9-1.3-4.7s.5-3.8,1.5-5.5c1-1.6,2.4-3,4.1-4s3.5-1.5,5.6-1.5,2.2.1,3.2.3c1,.2,1.9.3,2.7.3.8,0,1.9-.3,3.4-.6,1.5-.3,3.1-.7,4.9-1.2l.2.2-.7,3.4c-.9.1-1.8.2-2.8.3-1,0-1.8.2-2.4.2l-.2.3c1.6,1.8,2.4,3.8,2.4,6.1s-.5,3.7-1.6,5.3c-1.1,1.6-2.5,2.9-4.3,3.8-1.8,1-3.8,1.4-6,1.4ZM409.4,140.4c1.8,0,3.3-.6,4.4-1.7,1.1-1.2,1.6-2.8,1.6-4.8s-.6-4.2-1.9-5.6c-1.3-1.4-2.9-2.2-5-2.2s-3.3.6-4.3,1.8c-1.1,1.2-1.6,2.8-1.6,4.9s.6,4.1,1.9,5.5c1.3,1.4,2.9,2.1,5,2.1ZM409.2,162.4c1.6,0,3-.3,4.4-.8,1.4-.5,2.5-1.3,3.3-2.2.8-.9,1.3-1.9,1.3-2.9s-.3-1.4-.9-1.9c-.6-.5-1.7-.9-3.4-1.3-1.7-.4-4.1-.8-7.3-1.2-1.2.8-2.1,1.8-2.8,2.8-.6,1-1,2-1,3s.6,2.4,1.7,3.3c1.2.8,2.7,1.2,4.6,1.2Z" fill="#ac4a5e"/>
      <path d="M428,148.7c1.2-.1,2-.5,2.4-1.2.4-.7.6-1.9.6-3.8v-13.2c0-1.3-.2-2.3-.5-2.8-.4-.6-.9-.8-1.7-.8s-.7,0-1.3.2l-.3-.4.2-1.9c1.2-.2,2.5-.5,3.7-.8,1.2-.3,2.7-.6,4.4-1l.4.4c-.2,1.3-.3,2.4-.4,3.3,0,.9-.1,1.9-.1,2.8l.2.2c1.2-1.9,2.7-3.4,4.3-4.6,1.6-1.2,3-1.8,4.2-1.8s1.3,0,1.9.2l.2.2c-.2,1.1-.3,2.1-.4,2.9-.1.9-.2,1.8-.3,2.8,0,1-.2,2-.2,2.9l-2.3.2c0-1.6-.1-2.7-.3-3.3-.2-.5-.6-.8-1.3-.8s-1.8.4-2.8,1.1c-1,.7-1.9,1.7-2.8,3,0,1.5-.1,2.8-.2,3.9,0,1.1,0,2.3-.1,3.5s0,2.2-.1,3.1c0,.9,0,1.5,0,1.8,0,1.4.2,2.3.6,2.8.4.5,1.2.7,2.3.7s1.3,0,2.6-.1v.2c0,0-.5,2.6-.5,2.6-.8,0-1.5,0-2.2,0s-1.3,0-2,0c-.7,0-1.4,0-2,0-1.2,0-2.2,0-3.2,0s-2,0-3.1.2l.3-2.4Z" fill="#ac4a5e"/>
      <path d="M469.1,151.6c-1.6,0-2.9-.4-3.8-1.2-.9-.8-1.4-2-1.6-3.6h-.2c-1,.9-1.9,1.7-2.7,2.4-.9.7-1.6,1.2-2.3,1.6-.7.4-1.2.6-1.6.6-1.5,0-2.8-.3-4-1-1.2-.6-2.1-1.5-2.7-2.6-.7-1.1-1-2.4-1-3.8s.3-2.2.9-3.1c.6-.9,1.3-1.5,2.3-1.7l11.4-3.1v-2.6c0-2-.4-3.6-1.3-4.7-.9-1.1-2.2-1.7-3.9-1.7s-2.3.3-3.5.8c-1.2.5-2.5,1.3-3.7,2.2l-.3-.2-.7-2.6c1-.6,2.2-1.2,3.5-1.9,1.3-.7,2.5-1.2,3.7-1.6,1.2-.4,2-.7,2.6-.7,1.8,0,3.3.3,4.5.9,1.2.6,2.2,1.5,2.9,2.6.7,1.1,1,2.5,1,4.2s0,1.4-.1,2.5c-.1,1.2-.2,2.5-.4,3.9-.2,1.4-.3,2.8-.4,4.1-.1,1.3-.2,2.4-.2,3.3s.2,1.6.7,2c.4.5,1,.7,1.8.7s1.4-.2,2-.5c.7-.3,1.2-.7,1.6-1l.8,1c-.3.5-.8,1.1-1.3,1.8-.5.7-1.1,1.3-1.8,1.8-.7.6-1.4,1-2.1,1.2ZM458,147.3c.8,0,1.6-.3,2.7-.8,1-.5,2-1.2,2.8-2.1l.3-6.1-8.2,2.5c-1.2.4-1.7,1.2-1.7,2.5s.4,2.1,1.2,2.9,1.8,1.2,3,1.2Z" fill="#ac4a5e"/>
      <path d="M477.8,162.7c1.3-.2,2.1-.5,2.5-1,.4-.5.6-1.6.6-3.3s0-1.6,0-2.8c0-1.2,0-2.5,0-3.9,0-1.3,0-2.4,0-3.3v-17.9c0-1.4-.2-2.3-.7-2.8s-1.2-.8-2.3-.8h-.7l-.2-.2.2-2c1.4-.2,2.7-.5,4-.8,1.3-.3,2.7-.6,4.4-1l.4.5c-.3,1.4-.5,2.4-.6,3.2l.2.4c1.8-1.2,3.2-2.2,4.5-2.9,1.2-.7,2-1,2.5-1,2.3,0,4.3.5,6.1,1.6,1.7,1.1,3.1,2.5,4,4.4,1,1.9,1.5,4.1,1.5,6.6s-.4,4.2-1.2,6.1c-.8,1.9-1.9,3.6-3.2,5-1.4,1.4-3,2.6-4.8,3.4s-3.7,1.2-5.8,1.2-1.1,0-1.7,0c-.7,0-1.6-.1-2.6-.2,0,1,0,2,0,3.1,0,1,0,2.1,0,3.1,0,1.8.2,3.1.6,3.8.4.7,1.1,1,2.2,1s.7,0,1,0c.4,0,.7,0,1,0v.2c.1,0-.4,2.3-.4,2.3h-5.7c-1.1,0-2.2,0-3.1,0-1,0-2.1.2-3.2.3l.3-2.3ZM491,148.3c2.7,0,4.8-.9,6.3-2.7,1.5-1.8,2.3-4.3,2.3-7.5s-.4-3.9-1.1-5.5c-.7-1.6-1.6-2.9-2.8-3.9s-2.5-1.4-4-1.4-1.8.3-2.9.8c-1.2.5-2.3,1.2-3.3,2.1,0,1.6-.2,3.4-.2,5.4,0,2-.1,3.9-.2,5.9,0,2,0,3.9,0,5.6.8.3,1.8.6,2.9.8,1.1.2,2.1.3,3.1.3Z" fill="#ac4a5e"/>
      <path d="M508.5,148.5c1.2-.1,2-.4,2.4-.9.5-.5.7-1.3.7-2.4v-31.9c0-1.1-.2-1.9-.5-2.4s-.9-.8-1.7-.8h-1.3l-.2-.2.2-1.9c.9-.1,1.9-.3,3-.5s2.2-.4,3.2-.6c1-.2,1.9-.4,2.6-.6l.4.8c-.2.3-.3,1.3-.5,3.2-.2,1.8-.4,4.3-.5,7.3-.1,3-.3,6.4-.4,10.1.3-.2.8-.5,1.5-1,.7-.5,1.6-1,2.5-1.6.9-.6,1.9-1,2.8-1.4.9-.4,1.6-.6,2.2-.6,2.6,0,4.6.7,6.1,2,1.4,1.3,2.2,3.2,2.2,5.7s0,1.4-.1,2.6c-.1,1.2-.2,2.5-.3,4-.1,1.5-.2,2.9-.3,4.3-.1,1.4-.2,2.5-.2,3.4s.2,2,.5,2.5c.3.5.9.8,1.6.8s.6,0,1,0c.4,0,.8,0,1.1,0v.2c.1,0-.4,2.6-.4,2.6-.6,0-1.5,0-2.5-.1-1.1,0-2,0-2.8,0s-1.1,0-1.7,0c-.7,0-1.4.1-2.2.2-.8,0-1.5.2-2.3.4l.2-2.5c1.2-.3,2.1-.8,2.6-1.4.5-.6.8-1.4.8-2.5l.4-11.9c0-2-.4-3.5-1.3-4.6-.9-1.1-2.1-1.6-3.7-1.6s-2.2.3-3.7,1c-1.5.6-2.8,1.4-3.9,2.3,0,1.5,0,3,0,4.6,0,1.6,0,3.2,0,4.9,0,1.7,0,3.4,0,5.1s.2,2.1.5,2.6.9.8,1.7.8.6,0,1,0c.4,0,.8,0,1.1,0v.2c.1,0-.4,2.6-.4,2.6-.7,0-1.6,0-2.6-.1s-2,0-2.8,0-1.8,0-3,0c-1.1,0-2.1,0-3,0l.4-2.5Z" fill="#ac4a5e"/>
      <path d="M553.2,151.6c-2.5,0-4.7-.6-6.6-1.7-1.9-1.1-3.4-2.7-4.4-4.7-1.1-2-1.6-4.3-1.6-6.9s.3-4,1-5.8c.7-1.8,1.7-3.5,2.9-4.9,1.2-1.4,2.6-2.5,4.2-3.4,1.6-.8,3.3-1.2,5.1-1.2,6,0,8.9,2.9,8.9,8.7s0,1.1-.1,1.6c0,.6-.2,1-.2,1.3l-.8.7h-16.6c0,3.6.6,6.4,2,8.4,1.3,2.1,3.2,3.3,5.7,3.6,2.4.3,5.3-.2,8.6-1.8h.4c0,.1.7,1.9.7,1.9-.8.6-1.8,1.2-2.9,1.8-1.1.6-2.2,1.2-3.3,1.6-1.1.4-2.1.7-3,.7ZM545.4,133.2l10.9-.5c.6,0,1-.2,1.2-.4.2-.2.3-.6.3-1.2,0-1.6-.4-2.8-1.3-3.7-.9-.8-2.1-1.3-3.7-1.3s-3.4.6-4.8,1.9c-1.4,1.3-2.2,3-2.6,5.2Z" fill="#ac4a5e"/>
      <path d="M575.6,151.6c-1.4,0-2.7-.1-3.8-.3-1.1-.2-2.2-.5-3.4-.9l-.2-.4c0-.4.2-1.2.3-2.2,0-1,.2-2.1.3-3.2,0-1.1.2-2,.2-2.6l2.1-.3c0,2.6.4,4.5,1.3,5.6.9,1.1,2.4,1.6,4.5,1.6s2.8-.3,3.8-1c1-.7,1.6-1.5,1.6-2.5s-.2-1.3-.6-1.9c-.4-.6-1.1-1.2-2.1-1.9-1-.7-2.4-1.5-4.3-2.5-2.3-1.2-3.9-2.3-5-3.5-1-1.2-1.6-2.5-1.6-4s.5-3.1,1.4-4.4c1-1.3,2.3-2.3,4-3,1.7-.7,3.6-1.1,5.6-1.1s3.6.3,6,1v.3c-.2,1.4-.4,2.6-.6,3.7-.2,1.1-.3,2.3-.5,3.6l-2.2.2c0-.9.1-1.5.1-1.7,0-1.4-.4-2.5-1.2-3.1-.8-.7-2-1-3.8-1s-2.5.3-3.5,1c-.9.6-1.4,1.4-1.4,2.3s.4,1.9,1.2,2.7c.8.8,2.2,1.7,4,2.7,2.2,1.1,3.8,2.1,5.1,3,1.2.9,2.1,1.8,2.6,2.6.5.8.8,1.8.8,2.8,0,1.5-.5,2.9-1.5,4.3-1,1.3-2.4,2.4-4,3.1-1.7.8-3.5,1.2-5.4,1.2Z" fill="#ac4a5e"/>
    </g>
    <g>
      <path d="M230.6,194.9v2.5c0,.3.1.6.2.7,0,.1.3.2.5.2s.5,0,.8-.1l.2.2-.2,1.1c-.4.3-.9.4-1.3.5-.5,0-.9-.2-1.2-.5-.3-.3-.5-.7-.5-1.2h-.2c-.5.4-.9.7-1.3,1s-.8.5-1.3.7c-1.6,0-2.8-.5-3.6-1.5-.8-1-1.3-2.3-1.3-4.1s.5-3.2,1.4-4.2,2.2-1.5,3.9-1.5,1.5,0,2.1.2v-5.7s1.9-.2,1.9-.2l-.2,12ZM224.2,190.9c-.6.7-.9,1.7-.9,3s.3,2.4.8,3.2c.5.8,1.3,1.1,2.2,1.1s.9-.1,1.3-.3c.4-.2.9-.6,1.3-1.1v-1.7s0-4.6,0-4.6c-.8-.4-1.6-.6-2.3-.6-1,0-1.8.3-2.4,1Z" fill="#3f6170"/>
      <path d="M245.4,189.3c.6.5.9,1.2.9,2.1s0,1.3-.1,3c0,1.7-.1,2.7-.1,3s0,.6.2.7c.1.1.3.2.6.2s.5,0,.8-.1l.2.2-.2,1.1c-.5.3-.9.4-1.4.5-.5,0-.9-.2-1.2-.5s-.5-.7-.5-1.2h-.2c-.9.9-1.7,1.5-2.6,1.8-1.1,0-1.9-.3-2.5-.8-.6-.5-.9-1.3-.9-2.2s.2-1.3.6-1.7c.4-.4.9-.7,1.7-.9l3.9-.9v-1.6c0-.6-.1-1.1-.5-1.4-.3-.3-.8-.5-1.4-.5s-1.1.1-1.6.4-1.1.7-1.8,1.2h-.2c0,0-.2-1.5-.2-1.5,1.3-1,2.7-1.5,4.1-1.5s1.9.3,2.5.8ZM241,195.5c-.3,0-.6.2-.7.4-.1.2-.2.4-.2.8,0,.5.1.9.4,1.2.3.3.7.4,1.2.4.9,0,1.8-.6,2.7-1.7v-2c0,0-3.4.8-3.4.8Z" fill="#3f6170"/>
      <path d="M261.5,192.3c0-.7-.1-1.2-.5-1.5-.3-.4-.8-.6-1.4-.6-1,0-2.1.6-3.3,1.7v7.8c0,0-1.8,0-1.8,0v-4.7c.1,0,0-6.2,0-6.2l1.8-.2v1.6h.1c1-.9,2-1.4,3-1.7,1.2,0,2.1.3,2.7.8.6.6.9,1.4.9,2.4v3.1s0,4.8,0,4.8h-1.9v-7.5Z" fill="#3f6170"/>
      <path d="M277,189.1l-.3,1.6h-.3c-.8-.5-1.6-.7-2.3-.7s-1,.2-1.3.5-.5.7-.5,1.1.2.8.5,1c.3.3.9.6,1.6.9.6.3,1.1.5,1.5.8s.7.5,1,.9.4.9.4,1.4-.2,1.1-.5,1.7-.8.9-1.3,1.2c-.6.3-1.3.5-2.1.5s-2.2-.3-3.2-.8l.2-1.6h.2c.4.2.9.5,1.5.7.5.2,1,.3,1.5.3s1.1-.2,1.4-.5.6-.7.6-1.2-.2-.8-.5-1-.9-.6-1.6-.9c-.6-.3-1.1-.5-1.5-.8-.4-.2-.7-.5-1-.9-.3-.4-.4-.9-.4-1.5,0-.9.3-1.7,1-2.3.7-.6,1.6-.9,2.8-.9s1.8.2,2.6.5Z" fill="#3f6170"/>
      <path d="M303.4,194.9v4.8c.1,0-1.8,0-1.8,0v-4.7c.1,0,0-12,0-12l1.9-.2v12Z" fill="#3f6170"/>
      <path d="M318,189.3c.6.5.9,1.2.9,2.1s0,1.3-.1,3c0,1.7-.1,2.7-.1,3s0,.6.2.7c.1.1.3.2.6.2s.5,0,.8-.1l.2.2-.2,1.1c-.5.3-.9.4-1.4.5-.5,0-.9-.2-1.2-.5s-.5-.7-.5-1.2h-.2c-.9.9-1.7,1.5-2.6,1.8-1.1,0-1.9-.3-2.5-.8-.6-.5-.9-1.3-.9-2.2s.2-1.3.6-1.7c.4-.4.9-.7,1.7-.9l3.9-.9v-1.6c0-.6-.1-1.1-.5-1.4-.3-.3-.8-.5-1.4-.5s-1.1.1-1.6.4-1.1.7-1.8,1.2h-.2c0,0-.2-1.5-.2-1.5,1.3-1,2.7-1.5,4.1-1.5s1.9.3,2.5.8ZM313.6,195.5c-.3,0-.6.2-.7.4-.1.2-.2.4-.2.8,0,.5.1.9.4,1.2.3.3.7.4,1.2.4.9,0,1.8-.6,2.7-1.7v-2c0,0-3.4.8-3.4.8Z" fill="#3f6170"/>
      <path d="M336.5,190.1l2.4,7.7h.1l2.8-7.6.4-1.5h1.7l-4,11h-2l-3.4-10.9h1.8c0-.1.3,1.3.3,1.3Z" fill="#3f6170"/>
      <path d="M352.2,184.1c.2.2.3.5.3.8s-.1.6-.3.8-.5.3-.8.3-.6,0-.8-.3c-.2-.2-.3-.5-.3-.8s0-.6.3-.8.5-.3.8-.3.6,0,.8.3ZM350.5,195.1v-6.2c0,0,1.8-.2,1.8-.2v6.2s0,4.8,0,4.8h-1.9v-4.7Z" fill="#3f6170"/>
      <path d="M362.5,194.9v4.8c.1,0-1.8,0-1.8,0v-4.7c.1,0,0-12,0-12l1.9-.2v12Z" fill="#3f6170"/>
      <path d="M372.9,194.9v4.8c.1,0-1.8,0-1.8,0v-4.7c.1,0,0-12,0-12l1.9-.2v12Z" fill="#3f6170"/>
      <path d="M382.2,194.1h0c0,1.4.3,2.4.9,3.1.6.7,1.5,1.1,2.6,1.1s1.1,0,1.7-.3c.6-.2,1.1-.4,1.5-.8h.2c0,.1-.3,1.8-.3,1.8-1.1.5-2.2.8-3.4.8s-2.8-.5-3.7-1.5c-.9-1-1.3-2.4-1.3-4.1s.4-3.2,1.3-4.2c.9-1,2.1-1.6,3.6-1.6s2.3.4,3,1.1,1.1,1.7,1.1,3,0,.8,0,1.2l-.2.2h-6.9ZM383.4,190.7c-.5.5-.9,1.3-1.1,2.2h5.3c0,0,0-.4,0-.4,0-.8-.2-1.4-.6-1.9-.4-.4-1-.7-1.7-.7s-1.5.3-2,.8Z" fill="#3f6170"/>
      <path d="M421.9,194.9v2.5c0,.3.1.6.2.7,0,.1.3.2.5.2s.5,0,.8-.1l.2.2-.2,1.1c-.4.3-.9.4-1.3.5-.5,0-.9-.2-1.2-.5-.3-.3-.5-.7-.5-1.2h-.2c-.5.4-.9.7-1.3,1s-.8.5-1.3.7c-1.6,0-2.8-.5-3.6-1.5-.8-1-1.3-2.3-1.3-4.1s.5-3.2,1.4-4.2,2.2-1.5,3.9-1.5,1.5,0,2.1.2v-5.7s1.9-.2,1.9-.2l-.2,12ZM415.5,190.9c-.6.7-.9,1.7-.9,3s.3,2.4.8,3.2c.5.8,1.3,1.1,2.2,1.1s.9-.1,1.3-.3c.4-.2.9-.6,1.3-1.1v-1.7s0-4.6,0-4.6c-.8-.4-1.6-.6-2.3-.6-1,0-1.8.3-2.4,1Z" fill="#3f6170"/>
      <path d="M431.4,194.1h0c0,1.4.3,2.4.9,3.1.6.7,1.5,1.1,2.6,1.1s1.1,0,1.7-.3c.6-.2,1.1-.4,1.5-.8h.2c0,.1-.3,1.8-.3,1.8-1.1.5-2.2.8-3.4.8s-2.8-.5-3.7-1.5c-.9-1-1.3-2.4-1.3-4.1s.4-3.2,1.3-4.2c.9-1,2.1-1.6,3.6-1.6s2.3.4,3,1.1,1.1,1.7,1.1,3,0,.8,0,1.2l-.2.2h-6.9ZM432.6,190.7c-.5.5-.9,1.3-1.1,2.2h5.3c0,0,0-.4,0-.4,0-.8-.2-1.4-.6-1.9-.4-.4-1-.7-1.7-.7s-1.5.3-2,.8Z" fill="#3f6170"/>
      <path d="M478.5,203c-.2.3-.3.5-.4.7-.1.2-.3.3-.5.5h-.2c-1.6-.3-3.1-.9-4.5-1.7-1.4-.8-2.8-1.7-4-2.7-.1,0-.3,0-.6,0-2.1,0-3.7-.7-4.9-2-1.1-1.3-1.7-3.3-1.7-5.7s.6-4.5,1.8-5.9c1.2-1.4,2.9-2.1,5.1-2.1s3.7.7,4.8,2c1.1,1.3,1.7,3.2,1.7,5.7s-.4,3.8-1.2,5.1-1.9,2.2-3.4,2.7c2.3,1.6,4.9,2.7,7.7,3.2v.2ZM468.5,198.3c1.6,0,2.7-.5,3.5-1.6.8-1.1,1.2-2.6,1.2-4.8,0-4.1-1.6-6.2-4.7-6.2s-2.8.5-3.6,1.5c-.8,1-1.2,2.6-1.2,4.7,0,4.2,1.6,6.3,4.7,6.3Z" fill="#3f6170"/>
      <path d="M492.5,198.3l-.2,1.1c-.5.3-.9.4-1.4.5-.5,0-.8-.2-1.1-.5-.3-.3-.5-.7-.6-1.2h-.1c-1,.9-2,1.4-3,1.7-1.2,0-2.1-.3-2.7-.8-.6-.6-.9-1.4-.9-2.4v-3s0-4.7,0-4.7l1.9-.2v7.5c-.1.7,0,1.2.3,1.5.3.4.8.6,1.4.6,1,0,2-.5,3-1.4v-8l1.8-.2v8.7c-.1.3,0,.6,0,.7.1.1.3.2.5.2s.5,0,.8-.1l.2.2Z" fill="#3f6170"/>
      <path d="M500.2,194.1h0c0,1.4.3,2.4.9,3.1.6.7,1.5,1.1,2.6,1.1s1.1,0,1.7-.3c.6-.2,1.1-.4,1.5-.8h.2c0,.1-.3,1.8-.3,1.8-1.1.5-2.2.8-3.4.8s-2.8-.5-3.7-1.5c-.9-1-1.3-2.4-1.3-4.1s.4-3.2,1.3-4.2c.9-1,2.1-1.6,3.6-1.6s2.3.4,3,1.1,1.1,1.7,1.1,3,0,.8,0,1.2l-.2.2h-6.9ZM501.3,190.7c-.5.5-.9,1.3-1.1,2.2h5.3c0,0,0-.4,0-.4,0-.8-.2-1.4-.6-1.9-.4-.4-1-.7-1.7-.7s-1.5.3-2,.8ZM505.5,183l.7,1v.2c-1.6,1.2-3,2.2-4.1,3h-.2s-.5-.8-.5-.8c1.6-1.3,2.9-2.4,3.9-3.5h.2Z" fill="#3f6170"/>
      <path d="M523.1,190c.7.9,1.1,2.2,1.1,3.9s-.5,3.4-1.4,4.5c-.9,1-2.2,1.6-3.9,1.6s-1.6-.2-2.4-.5l-1.3.6-.3-.2v-4.7c.1,0,0-12.1,0-12.1l1.9-.2v7.4c0,0,0,0,0,0,.5-.4,1-.8,1.5-1,.4-.2,1-.4,1.5-.6,1.4,0,2.5.5,3.2,1.4ZM521.5,197.4c.6-.7.9-1.8.9-3.2s-.2-2.3-.7-3c-.5-.7-1.1-1.1-2-1.1s-1,.1-1.5.4c-.5.3-1,.7-1.5,1.3v3s0,2.9,0,2.9c.8.5,1.5.8,2.3.8s1.8-.4,2.4-1.1Z" fill="#3f6170"/>
      <path d="M532.4,194.1h0c0,1.4.3,2.4.9,3.1.6.7,1.5,1.1,2.6,1.1s1.1,0,1.7-.3c.6-.2,1.1-.4,1.5-.8h.2c0,.1-.3,1.8-.3,1.8-1.1.5-2.2.8-3.4.8s-2.8-.5-3.7-1.5c-.9-1-1.3-2.4-1.3-4.1s.4-3.2,1.3-4.2c.9-1,2.1-1.6,3.6-1.6s2.3.4,3,1.1,1.1,1.7,1.1,3,0,.8,0,1.2l-.2.2h-6.9ZM533.6,190.7c-.5.5-.9,1.3-1.1,2.2h5.3c0,0,0-.4,0-.4,0-.8-.2-1.4-.6-1.9-.4-.4-1-.7-1.7-.7s-1.5.3-2,.8Z" fill="#3f6170"/>
      <path d="M552.6,188.7c.5.1,1,.3,1.4.5l-.3,1.7h-.2c-.8-.5-1.7-.7-2.5-.7s-1.7.4-2.2,1.1c-.5.7-.8,1.7-.8,3s.3,2.3.8,3.1c.6.7,1.3,1.1,2.3,1.1s.9,0,1.4-.2c.5-.1.9-.3,1.3-.6h.2c0,.1-.2,1.7-.2,1.7-1,.4-2,.6-2.9.6-1.5,0-2.6-.5-3.4-1.5s-1.2-2.4-1.2-4.1.4-3.2,1.3-4.2c.9-1,2.1-1.5,3.6-1.5s1,0,1.5.2Z" fill="#3f6170"/>
    </g>
  </g>
</svg>