<svg width="133" height="133" viewBox="0 0 133 133" fill="none" xmlns="http://www.w3.org/2000/svg">
<path d="M66.5 11.0833C70.9092 11.0833 75.1379 12.8349 78.2556 15.9527C81.3734 19.0705 83.125 23.2991 83.125 27.7083C83.125 32.1176 81.3734 36.3462 78.2556 39.464C75.1379 42.5818 70.9092 44.3333 66.5 44.3333C62.0908 44.3333 57.8621 42.5818 54.7443 39.464C51.6266 36.3462 49.875 32.1176 49.875 27.7083C49.875 23.2991 51.6266 19.0705 54.7443 15.9527C57.8621 12.8349 62.0908 11.0833 66.5 11.0833ZM60.9583 121.917H44.3333V88.6667H33.25V49.875H99.75V88.6667H88.6667V121.917H72.0417V99.75H60.9583V121.917Z" fill="white"/>
</svg>
